<svg version="1.1" id="Ebene_1" xmlns="http://www.w3.org/2000/svg" x="0px"
     y="0px"
     viewBox="0 0 492.6 696.6" xml:space="preserve">
<style type="text/css">
	.st4{font-family:'Raleway-Light';}
	.st5{font-size:30px;}
	.st6{letter-spacing:2px;}
	.st7{letter-spacing:3px;}
	.st8{letter-spacing:4px;}
	.st9{letter-spacing:1px;}
	.st10{font-family:'Raleway-Bold';}
	.st11{font-size:13px;}
	.st12{letter-spacing:9px;}
	.st13{letter-spacing:14px;}
</style>
  <polygon fill="none" points="175.45,302.04 203.52,302.04 189.49,264.91 "/>
  <path fill="none" d="M218.53,284.66v-36.68c-0.59-0.67-1.26-1.28-2.01-1.82c-0.77-0.55-1.96-0.83-3.57-0.83
	c-1.28,0-2.66,0.24-4.15,0.7c-1.49,0.47-3.19,1-5.1,1.59c-1.91,0.59-4.06,1.13-6.44,1.6c0,0,0,0,0,0l13.46,35.44H218.53z"/>
  <path fill="none" d="M242.83,339.28v1.81h-25.23l28.19,74.36l25.72-67.83c-3.59-1.49-6.77-3.63-9.52-6.42
	c-2.77-2.81-4.98-6.21-6.63-10.21c-1.66-4-2.49-8.51-2.49-13.53c0-1.79,0.02-3.36,0.06-4.72c0.04-1.36,0.15-2.64,0.32-3.83
	c0.17-1.19,0.36-2.38,0.57-3.57c0.21-1.19,0.53-2.51,0.96-3.96c0.51-1.7,1.1-3.53,1.79-5.49c0.68-1.96,1.02-3.66,1.02-5.1
	c0-1.28-0.15-1.82-0.77-2.62c-0.62-0.8-2.12-1.74-3.26-1.74c-0.87,0-28.78,0-42.17,0l20.07,52.83H242.83z"/>
  <g>
	<path d="M288.7,428.34V349.3c-1.73,0.38-3.64,0.58-5.72,0.58c-2.42,0-4.76-0.28-7.04-0.82v79.28h-14.16v1.79h41.09
		v-1.79H288.7z"/>
    <path d="M240.07,436.34l33.23-88.04c-0.59-0.2-1.17-0.41-1.74-0.65c-0.02-0.01-0.04-0.02-0.05-0.02l-25.72,67.83
		l-28.19-74.36h25.23v-1.81h-11.37l-20.07-52.83l-0.68-1.79l-13.46-35.44c-1.33,0.26-2.75,0.44-4.24,0.56l-33.76,89.53h-11.23v1.79
		h27.43v-1.79h-14.16l13.4-35.47h29.6l13.39,35.45h-29.86v1.79h14.16v87.28h-14.16v1.79h30.24v-1.79h-14.16v-87.01L240.07,436.34z
		 M175.45,302.04l14.03-37.13l14.04,37.13H175.45z"/>
</g>
  <path d="M345.43,327.93c0.64-1.45,1.21-3.17,1.72-5.17c0.51-2,0.77-4.49,0.77-7.46c0-4.08-0.68-7.85-2.04-11.29
	c-1.36-3.44-3.23-6.4-5.62-8.87c-2.38-2.47-5.21-4.38-8.49-5.74c-3.27-1.36-6.83-2.04-10.65-2.04c-5.87,0-10.55,1.76-14.04,5.3
	c-3.49,3.53-6.3,8.74-8.42,15.63l-4.47,14.67c-0.51,1.79-1.23,3.68-2.17,5.68c-0.94,2-2.15,3.85-3.64,5.55
	c-1.49,1.7-3.3,3.1-5.42,4.21c-2.13,1.1-4.68,1.66-7.66,1.66c-2.04,0-4.28-0.34-6.7-1.02c-2.42-0.68-4.68-1.87-6.76-3.57
	c-2.09-1.7-3.81-4-5.17-6.89c-1.36-2.89-2.04-6.59-2.04-11.1c0-1.62,0.04-3.34,0.13-5.17c0.08-1.83,0.38-3.74,0.89-5.74
	c0.51-2,1.32-3.98,2.42-5.93c1.1-1.96,2.68-3.83,4.72-5.61c2.04-1.79,4.64-3.43,7.78-4.91c3.15-1.49,7.01-2.7,11.6-3.64V258.5h-1.4
	c-0.26,1.96-0.85,4.42-1.79,7.4c-0.94,2.98-2.38,5.85-4.34,8.61c-1.96,2.77-4.49,5.15-7.59,7.15c-3.11,2-7,3-11.68,3h-24.12V238.6
	h10.33c3.06,0,5.55,0.53,7.46,1.6c1.91,1.06,3.45,2.49,4.59,4.27c1.15,1.79,2.04,3.83,2.68,6.12c0.64,2.3,1.25,4.68,1.85,7.15h1.4
	v-39.68h-1.4c-0.94,3.83-1.89,6.95-2.87,9.38c-0.98,2.42-2.17,4.34-3.57,5.74c-1.4,1.4-3.09,2.36-5.04,2.87
	c-1.96,0.51-4.34,0.77-7.15,0.77h-8.29v-39.43h21.18c3.49,0,6.46,0.43,8.93,1.28c2.47,0.85,4.59,2.15,6.38,3.89
	c1.79,1.74,3.32,3.87,4.59,6.38c1.28,2.51,2.47,5.42,3.57,8.74h1.4V195.6h-72.99v1.79h14.16v25.35c-0.73,2.61-1.51,5.22-2.4,7.85
	c-1.11,3.28-2.72,6.21-4.85,8.8c-2.13,2.6-4.93,4.7-8.42,6.32c-3.49,1.62-8.08,2.42-13.78,2.42c-4.42,0-8.47-0.68-12.12-2.04
	c-3.66-1.36-6.78-3.74-9.38-7.15c-2.6-3.4-4.62-8.04-6.06-13.91c-1.45-5.87-2.17-13.27-2.17-22.2c0-3.15,0.1-6.49,0.32-10.02
	c0.21-3.53,0.66-7.02,1.34-10.46c0.68-3.44,1.68-6.72,3-9.82c1.32-3.11,3.08-5.83,5.3-8.17c2.21-2.34,4.93-4.21,8.17-5.61
	c3.23-1.4,7.1-2.11,11.61-2.11c4.85,0,8.91,0.75,12.18,2.23c3.27,1.49,5.98,3.45,8.1,5.87c2.12,2.42,3.78,5.21,4.97,8.36
	c1.19,3.15,2.17,6.34,2.94,9.57h1.4v-25.52h-1.91c-0.6,0.68-1.26,1.3-1.98,1.85c-0.73,0.55-1.94,0.83-3.64,0.83
	c-1.28,0-2.59-0.25-3.96-0.77c-1.36-0.51-2.85-1.08-4.47-1.72c-1.62-0.64-3.44-1.21-5.49-1.72c-2.04-0.51-4.38-0.77-7.02-0.77
	c-6.55,0-12.59,1.3-18.12,3.89c-5.53,2.6-10.34,6.11-14.42,10.53c-4.08,4.42-7.27,9.53-9.57,15.31c-2.3,5.79-3.44,11.87-3.44,18.25
	c0,7.49,1.4,14.08,4.21,19.78c2.81,5.7,6.3,10.64,10.46,14.8c4.51,4.42,9.29,7.61,14.36,9.57c5.06,1.96,10.27,2.93,15.63,2.93
	c1.28,0,2.5-0.05,3.67-0.14c1.49-0.12,2.91-0.3,4.24-0.56c0,0,0,0,0,0c2.38-0.47,4.53-1,6.44-1.6c1.91-0.6,3.62-1.13,5.1-1.59
	c1.49-0.47,2.87-0.7,4.15-0.7c1.61,0,2.81,0.28,3.57,0.83c0.75,0.55,1.42,1.15,2.01,1.82v36.68h-7.82l0.68,1.79
	c13.38,0,41.3,0,42.17,0c1.14,0,2.64,0.94,3.26,1.74c0.62,0.8,0.77,1.34,0.77,2.62c0,1.45-0.34,3.15-1.02,5.1
	c-0.68,1.96-1.28,3.78-1.79,5.49c-0.42,1.45-0.74,2.76-0.96,3.96c-0.21,1.19-0.4,2.38-0.57,3.57c-0.17,1.19-0.28,2.47-0.32,3.83
	c-0.04,1.36-0.06,2.93-0.06,4.72c0,5.02,0.83,9.53,2.49,13.53c1.66,4,3.87,7.4,6.63,10.21c2.75,2.79,5.92,4.93,9.52,6.42
	c0.02,0.01,0.04,0.02,0.05,0.02c0.58,0.24,1.16,0.45,1.74,0.65c0.87,0.3,1.75,0.55,2.64,0.76c2.28,0.54,4.62,0.82,7.04,0.82
	c2.09,0,3.99-0.2,5.72-0.58c1.87-0.41,3.54-1.05,4.99-1.91c2.81-1.66,5.06-3.66,6.76-6c1.7-2.34,2.98-4.74,3.83-7.21
	c0.85-2.47,1.53-4.51,2.04-6.12l4.85-15.44c0.68-2.21,1.47-4.4,2.36-6.57c0.89-2.17,2-4.13,3.32-5.87c1.32-1.74,2.94-3.17,4.85-4.27
	c1.91-1.11,4.23-1.66,6.95-1.66c3.4,0,6.21,0.7,8.42,2.1c2.21,1.4,4,3.17,5.36,5.3c1.36,2.13,2.32,4.42,2.87,6.89
	c0.55,2.47,0.83,4.72,0.83,6.76c0,3.66-0.66,6.87-1.98,9.63c-1.32,2.76-3.06,5.12-5.23,7.08c-2.17,1.96-4.68,3.55-7.53,4.78
	c-2.85,1.23-5.81,2.1-8.87,2.61v1.53h23.1v-1.79c-1.19-0.68-1.94-1.21-2.23-1.59c-0.3-0.38-0.45-1.13-0.45-2.23
	c0-1.19,0.26-2.36,0.77-3.51C344.22,330.68,344.79,329.38,345.43,327.93z"/>
  <rect x="51.33" y="465.6" fill="none" width="389.95" height="65.44"/>
  <text transform="matrix(1 0 0 1 89.0813 487.4993)"><tspan x="0" y="0" class="st3 st4 st5 st6">C</tspan>
    <tspan x="22.92" y="0" class="st4 st5 st6">A</tspan>
    <tspan x="45.99" y="0" class="st4 st5 st6">S</tspan>
    <tspan x="66.72" y="0" class="st4 st5 st7">A</tspan>
    <tspan x="90.75" y="0" class="st4 st5 st8"> </tspan>
    <tspan x="103.38" y="0" class="st4 st5 st7">ES</tspan>
    <tspan x="147.36" y="0" class="st4 st5 st9"> </tspan>
    <tspan x="156.39" y="0" class="st4 st5 st7">S</tspan>
    <tspan x="178.32" y="0" class="st4 st5 st8">IN</tspan>
    <tspan x="217.17" y="0" class="st4 st5 st7">D</tspan>
    <tspan x="241.7" y="0" class="st4 st5 st6">IC</tspan>
    <tspan x="274.49" y="0" class="st4 st5 st9">A</tspan>
    <tspan x="296.12" y="0" class="st4 st5 st7">T</tspan>
    <tspan x="36.92" y="21.57" class="st10 st11 st12"> ART</tspan>
    <tspan x="102.03" y="21.57" class="st10 st11 st13">A|</tspan>
    <tspan x="142.69" y="21.57" class="st10 st11 st12">MALLORCA</tspan></text>
</svg>
