<?xml version="1.0" encoding="utf-8"?>
<!-- Generator: Adobe Illustrator 27.3.1, SVG Export Plug-In . SVG Version: 6.00 Build 0)  -->
<svg version="1.1" id="Ebene_1" xmlns="http://www.w3.org/2000/svg" x="0px"
     y="0px"
     viewBox="0 0 1021 696.6" style="enable-background:new 0 0 1021 696.6;" xml:space="preserve">
<style type="text/css">
	.st0{fill:none;}
	.st1{fill:#A88A7A;}
	.st2{fill:#010001;}
	.st3{fill:#8A8A8A;}
</style>
  <g>
	<polygon fill="none" points="175.45,302.04 203.52,302.04 189.49,264.91 	"/>
    <path fill="none" d="M218.53,284.66v-36.68c-0.59-0.67-1.26-1.28-2.01-1.82c-0.77-0.55-1.96-0.83-3.57-0.83
		c-1.28,0-2.66,0.24-4.15,0.7c-1.49,0.47-3.19,1-5.1,1.59s-4.06,1.13-6.44,1.6l0,0l13.46,35.44H218.53z"/>
    <path fill="none" d="M242.83,339.28v1.81H217.6l28.19,74.36l25.72-67.83c-3.59-1.49-6.77-3.63-9.52-6.42
		c-2.77-2.81-4.98-6.21-6.63-10.21c-1.66-4-2.49-8.51-2.49-13.53c0-1.79,0.02-3.36,0.06-4.72c0.04-1.36,0.15-2.64,0.32-3.83
		c0.17-1.19,0.36-2.38,0.57-3.57s0.53-2.51,0.96-3.96c0.51-1.7,1.1-3.53,1.79-5.49c0.68-1.96,1.02-3.66,1.02-5.1
		c0-1.28-0.15-1.82-0.77-2.62s-2.12-1.74-3.26-1.74c-0.87,0-28.78,0-42.17,0l20.07,52.83h11.37V339.28z"/>
    <g>
		<path fill="#8A8A8A" d="M288.7,428.34V349.3c-1.73,0.38-3.64,0.58-5.72,0.58c-2.42,0-4.76-0.28-7.04-0.82v79.28h-14.16v1.79h41.09
			v-1.79L288.7,428.34L288.7,428.34z"/>
      <path fill="#8A8A8A" d="M240.07,436.34l33.23-88.04c-0.59-0.2-1.17-0.41-1.74-0.65c-0.02-0.01-0.04-0.02-0.05-0.02l-25.72,67.83
			L217.6,341.1h25.23v-1.81h-11.37l-20.07-52.83l-0.68-1.79l-13.46-35.44c-1.33,0.26-2.75,0.44-4.24,0.56l-33.76,89.53h-11.23v1.79
			h27.43v-1.79h-14.16l13.4-35.47h29.6l13.39,35.45h-29.86v1.79h14.16v87.28h-14.16v1.79h30.24v-1.79H203.9v-87.01L240.07,436.34z
			 M175.45,302.04l14.03-37.13l14.04,37.13H175.45z"/>
	</g>
    <path fill="#010001" d="M345.43,327.93c0.64-1.45,1.21-3.17,1.72-5.17s0.77-4.49,0.77-7.46c0-4.08-0.68-7.85-2.04-11.29
		c-1.36-3.44-3.23-6.4-5.62-8.87c-2.38-2.47-5.21-4.38-8.49-5.74c-3.27-1.36-6.83-2.04-10.65-2.04c-5.87,0-10.55,1.76-14.04,5.3
		c-3.49,3.53-6.3,8.74-8.42,15.63l-4.47,14.67c-0.51,1.79-1.23,3.68-2.17,5.68s-2.15,3.85-3.64,5.55c-1.49,1.7-3.3,3.1-5.42,4.21
		c-2.13,1.1-4.68,1.66-7.66,1.66c-2.04,0-4.28-0.34-6.7-1.02s-4.68-1.87-6.76-3.57c-2.09-1.7-3.81-4-5.17-6.89
		c-1.36-2.89-2.04-6.59-2.04-11.1c0-1.62,0.04-3.34,0.13-5.17c0.08-1.83,0.38-3.74,0.89-5.74c0.51-2,1.32-3.98,2.42-5.93
		c1.1-1.96,2.68-3.83,4.72-5.61c2.04-1.79,4.64-3.43,7.78-4.91c3.15-1.49,7.01-2.7,11.6-3.64V258.5h-1.4
		c-0.26,1.96-0.85,4.42-1.79,7.4c-0.94,2.98-2.38,5.85-4.34,8.61c-1.96,2.77-4.49,5.15-7.59,7.15c-3.11,2-7,3-11.68,3h-24.12V238.6
		h10.33c3.06,0,5.55,0.53,7.46,1.6c1.91,1.06,3.45,2.49,4.59,4.27c1.15,1.79,2.04,3.83,2.68,6.12c0.64,2.3,1.25,4.68,1.85,7.15h1.4
		v-39.68h-1.4c-0.94,3.83-1.89,6.95-2.87,9.38c-0.98,2.42-2.17,4.34-3.57,5.74c-1.4,1.4-3.09,2.36-5.04,2.87
		c-1.96,0.51-4.34,0.77-7.15,0.77h-8.29v-39.43h21.18c3.49,0,6.46,0.43,8.93,1.28s4.59,2.15,6.38,3.89s3.32,3.87,4.59,6.38
		c1.28,2.51,2.47,5.42,3.57,8.74h1.4V195.6H204.3v1.79h14.16v25.35c-0.73,2.61-1.51,5.22-2.4,7.85c-1.11,3.28-2.72,6.21-4.85,8.8
		c-2.13,2.6-4.93,4.7-8.42,6.32c-3.49,1.62-8.08,2.42-13.78,2.42c-4.42,0-8.47-0.68-12.12-2.04c-3.66-1.36-6.78-3.74-9.38-7.15
		c-2.6-3.4-4.62-8.04-6.06-13.91c-1.45-5.87-2.17-13.27-2.17-22.2c0-3.15,0.1-6.49,0.32-10.02c0.21-3.53,0.66-7.02,1.34-10.46
		s1.68-6.72,3-9.82c1.32-3.11,3.08-5.83,5.3-8.17c2.21-2.34,4.93-4.21,8.17-5.61c3.23-1.4,7.1-2.11,11.61-2.11
		c4.85,0,8.91,0.75,12.18,2.23c3.27,1.49,5.98,3.45,8.1,5.87c2.12,2.42,3.78,5.21,4.97,8.36s2.17,6.34,2.94,9.57h1.4v-25.52h-1.91
		c-0.6,0.68-1.26,1.3-1.98,1.85c-0.73,0.55-1.94,0.83-3.64,0.83c-1.28,0-2.59-0.25-3.96-0.77c-1.36-0.51-2.85-1.08-4.47-1.72
		s-3.44-1.21-5.49-1.72c-2.04-0.51-4.38-0.77-7.02-0.77c-6.55,0-12.59,1.3-18.12,3.89c-5.53,2.6-10.34,6.11-14.42,10.53
		s-7.27,9.53-9.57,15.31c-2.3,5.79-3.44,11.87-3.44,18.25c0,7.49,1.4,14.08,4.21,19.78c2.81,5.7,6.3,10.64,10.46,14.8
		c4.51,4.42,9.29,7.61,14.36,9.57c5.06,1.96,10.27,2.93,15.63,2.93c1.28,0,2.5-0.05,3.67-0.14c1.49-0.12,2.91-0.3,4.24-0.56l0,0
		c2.38-0.47,4.53-1,6.44-1.6s3.62-1.13,5.1-1.59c1.49-0.47,2.87-0.7,4.15-0.7c1.61,0,2.81,0.28,3.57,0.83
		c0.75,0.55,1.42,1.15,2.01,1.82v36.68h-7.82l0.68,1.79c13.38,0,41.3,0,42.17,0c1.14,0,2.64,0.94,3.26,1.74s0.77,1.34,0.77,2.62
		c0,1.45-0.34,3.15-1.02,5.1c-0.68,1.96-1.28,3.78-1.79,5.49c-0.42,1.45-0.74,2.76-0.96,3.96c-0.21,1.19-0.4,2.38-0.57,3.57
		c-0.17,1.19-0.28,2.47-0.32,3.83c-0.04,1.36-0.06,2.93-0.06,4.72c0,5.02,0.83,9.53,2.49,13.53c1.66,4,3.87,7.4,6.63,10.21
		c2.75,2.79,5.92,4.93,9.52,6.42c0.02,0.01,0.04,0.02,0.05,0.02c0.58,0.24,1.16,0.45,1.74,0.65c0.87,0.3,1.75,0.55,2.64,0.76
		c2.28,0.54,4.62,0.82,7.04,0.82c2.09,0,3.99-0.2,5.72-0.58c1.87-0.41,3.54-1.05,4.99-1.91c2.81-1.66,5.06-3.66,6.76-6
		s2.98-4.74,3.83-7.21c0.85-2.47,1.53-4.51,2.04-6.12l4.85-15.44c0.68-2.21,1.47-4.4,2.36-6.57c0.89-2.17,2-4.13,3.32-5.87
		s2.94-3.17,4.85-4.27c1.91-1.11,4.23-1.66,6.95-1.66c3.4,0,6.21,0.7,8.42,2.1c2.21,1.4,4,3.17,5.36,5.3
		c1.36,2.13,2.32,4.42,2.87,6.89s0.83,4.72,0.83,6.76c0,3.66-0.66,6.87-1.98,9.63s-3.06,5.12-5.23,7.08s-4.68,3.55-7.53,4.78
		s-5.81,2.1-8.87,2.61v1.53h23.1v-1.79c-1.19-0.68-1.94-1.21-2.23-1.59c-0.3-0.38-0.45-1.13-0.45-2.23c0-1.19,0.26-2.36,0.77-3.51
		C344.22,330.68,344.79,329.38,345.43,327.93z"/>
</g>
  <g>
	<path fill="#010001" d="M101.82,475.96c0-1.19,0.21-2.38,0.63-3.57c0.42-1.18,1.03-2.24,1.83-3.18c0.8-0.93,1.79-1.69,2.95-2.28
		c1.17-0.59,2.5-0.88,3.99-0.88c1.77,0,3.29,0.41,4.54,1.22s2.17,1.85,2.77,3.12l-1.18,0.67c-0.34-0.69-0.74-1.27-1.22-1.74
		s-0.99-0.84-1.54-1.13s-1.12-0.5-1.72-0.63s-1.19-0.2-1.76-0.2c-1.27,0-2.39,0.26-3.36,0.77c-0.97,0.51-1.79,1.18-2.46,2
		s-1.18,1.75-1.53,2.79s-0.52,2.08-0.52,3.12c0,1.18,0.21,2.3,0.62,3.36s0.97,2,1.68,2.81s1.55,1.46,2.52,1.95s2.02,0.73,3.14,0.73
		c0.6,0,1.21-0.07,1.83-0.22s1.23-0.38,1.82-0.7s1.13-0.72,1.64-1.22c0.5-0.49,0.92-1.08,1.26-1.75l1.2,0.59
		c-0.34,0.75-0.79,1.41-1.36,1.99s-1.21,1.06-1.92,1.46c-0.71,0.39-1.46,0.69-2.25,0.88c-0.79,0.2-1.57,0.29-2.34,0.29
		c-1.36,0-2.61-0.3-3.74-0.9s-2.1-1.38-2.93-2.34c-0.82-0.96-1.46-2.05-1.92-3.28C102.05,478.48,101.82,477.23,101.82,475.96z"/>
    <path fill="#010001" d="M122.4,486.04l8.46-19.88h1.18l8.46,19.88h-1.54l-2.77-6.55h-9.49l-2.77,6.55H122.4z M131.44,467.9
		l-4.42,10.42h8.76L131.44,467.9z"/>
    <path fill="#010001" d="M157.68,469.46c-1.29-1.44-3.11-2.16-5.46-2.16c-1.94,0-3.36,0.37-4.24,1.11s-1.33,1.73-1.33,2.98
		c0,0.63,0.11,1.17,0.34,1.6c0.22,0.43,0.57,0.79,1.05,1.08c0.48,0.29,1.08,0.54,1.82,0.76s1.61,0.42,2.62,0.63
		c1.08,0.22,2.05,0.47,2.91,0.74s1.59,0.61,2.2,1.02s1.07,0.92,1.4,1.51c0.33,0.6,0.49,1.33,0.49,2.21s-0.17,1.64-0.52,2.3
		c-0.34,0.65-0.83,1.2-1.46,1.64s-1.37,0.77-2.24,0.99s-1.83,0.34-2.9,0.34c-3.1,0-5.72-0.99-7.87-2.97l0.76-1.15
		c0.84,0.88,1.87,1.57,3.08,2.09c1.21,0.51,2.58,0.77,4.09,0.77c1.74,0,3.09-0.32,4.07-0.95c0.98-0.63,1.47-1.6,1.47-2.88
		c0-0.65-0.13-1.21-0.38-1.67s-0.64-0.85-1.16-1.19s-1.17-0.62-1.95-0.87c-0.77-0.24-1.68-0.48-2.73-0.7
		c-1.06-0.22-2-0.46-2.81-0.71s-1.5-0.57-2.06-0.95s-0.98-0.84-1.26-1.39c-0.28-0.54-0.42-1.22-0.42-2.04c0-0.9,0.17-1.69,0.52-2.38
		c0.34-0.69,0.83-1.27,1.44-1.75c0.62-0.48,1.35-0.83,2.21-1.08c0.86-0.24,1.81-0.36,2.86-0.36c1.29,0,2.44,0.19,3.44,0.57
		c1.01,0.38,1.92,0.97,2.74,1.75L157.68,469.46z"/>
    <path fill="#010001" d="M163.28,486.04l8.46-19.88h1.18l8.46,19.88h-1.54l-2.77-6.55h-9.49l-2.77,6.55H163.28z M172.32,467.9
		l-4.42,10.42h8.76L172.32,467.9z"/>
    <path fill="#010001"
          d="M212,484.75v1.29h-13.24v-19.88h12.99v1.29h-11.56v7.81h10.11v1.23h-10.11v8.26L212,484.75L212,484.75z"/>
    <path fill="#010001" d="M230.59,469.46c-1.29-1.44-3.11-2.16-5.46-2.16c-1.94,0-3.36,0.37-4.24,1.11s-1.33,1.73-1.33,2.98
		c0,0.63,0.11,1.17,0.34,1.6c0.22,0.43,0.57,0.79,1.05,1.08c0.48,0.29,1.08,0.54,1.82,0.76s1.61,0.42,2.62,0.63
		c1.08,0.22,2.05,0.47,2.91,0.74s1.59,0.61,2.2,1.02s1.07,0.92,1.4,1.51c0.33,0.6,0.49,1.33,0.49,2.21s-0.17,1.64-0.52,2.3
		c-0.34,0.65-0.83,1.2-1.46,1.64s-1.37,0.77-2.24,0.99s-1.83,0.34-2.9,0.34c-3.1,0-5.72-0.99-7.87-2.97l0.76-1.15
		c0.84,0.88,1.87,1.57,3.08,2.09c1.21,0.51,2.58,0.77,4.09,0.77c1.74,0,3.09-0.32,4.07-0.95c0.98-0.63,1.47-1.6,1.47-2.88
		c0-0.65-0.13-1.21-0.38-1.67s-0.64-0.85-1.16-1.19s-1.17-0.62-1.95-0.87c-0.77-0.24-1.68-0.48-2.73-0.7
		c-1.06-0.22-2-0.46-2.81-0.71s-1.5-0.57-2.06-0.95s-0.98-0.84-1.26-1.39c-0.28-0.54-0.42-1.22-0.42-2.04c0-0.9,0.17-1.69,0.52-2.38
		c0.34-0.69,0.83-1.27,1.44-1.75c0.62-0.48,1.35-0.83,2.21-1.08c0.86-0.24,1.81-0.36,2.86-0.36c1.29,0,2.44,0.19,3.44,0.57
		c1.01,0.38,1.92,0.97,2.74,1.75L230.59,469.46z"/>
    <path fill="#010001" d="M259.49,469.46c-1.29-1.44-3.11-2.16-5.46-2.16c-1.94,0-3.36,0.37-4.24,1.11s-1.33,1.73-1.33,2.98
		c0,0.63,0.11,1.17,0.34,1.6c0.22,0.43,0.57,0.79,1.05,1.08c0.48,0.29,1.08,0.54,1.82,0.76s1.61,0.42,2.62,0.63
		c1.08,0.22,2.05,0.47,2.91,0.74c0.86,0.27,1.59,0.61,2.2,1.02c0.61,0.41,1.07,0.92,1.4,1.51c0.33,0.6,0.49,1.33,0.49,2.21
		s-0.17,1.64-0.52,2.3c-0.34,0.65-0.83,1.2-1.46,1.64s-1.37,0.77-2.24,0.99s-1.83,0.34-2.9,0.34c-3.1,0-5.72-0.99-7.87-2.97
		l0.76-1.15c0.84,0.88,1.87,1.57,3.08,2.09c1.21,0.51,2.58,0.77,4.09,0.77c1.74,0,3.09-0.32,4.07-0.95s1.47-1.6,1.47-2.88
		c0-0.65-0.13-1.21-0.38-1.67s-0.64-0.85-1.16-1.19s-1.17-0.62-1.95-0.87c-0.77-0.24-1.68-0.48-2.73-0.7
		c-1.06-0.22-2-0.46-2.81-0.71s-1.5-0.57-2.06-0.95s-0.98-0.84-1.26-1.39c-0.28-0.54-0.42-1.22-0.42-2.04c0-0.9,0.17-1.69,0.52-2.38
		c0.34-0.69,0.83-1.27,1.44-1.75c0.62-0.48,1.35-0.83,2.21-1.08c0.86-0.24,1.81-0.36,2.86-0.36c1.29,0,2.44,0.19,3.44,0.57
		c1.01,0.38,1.92,0.97,2.74,1.75L259.49,469.46z"/>
    <path fill="#010001" d="M268.33,486.04v-19.85h1.43v19.85H268.33z"/>
    <path fill="#010001" d="M280.37,468.85v17.19h-1.43v-19.88h1.09l13.94,17.5v-17.47h1.43v19.85h-1.32L280.37,468.85z"/>
    <path fill="#010001" d="M304.59,486.04v-19.88h6.61c1.57,0,2.94,0.26,4.13,0.78c1.18,0.52,2.17,1.23,2.95,2.13s1.37,1.95,1.76,3.15
		s0.59,2.49,0.59,3.85c0,1.51-0.22,2.88-0.66,4.1s-1.07,2.27-1.89,3.14c-0.82,0.87-1.82,1.54-2.98,2.02
		c-1.17,0.48-2.47,0.71-3.91,0.71H304.59z M319.21,476.07c0-1.25-0.18-2.4-0.53-3.46s-0.87-1.96-1.55-2.73
		c-0.68-0.76-1.52-1.36-2.51-1.79c-0.99-0.43-2.13-0.64-3.42-0.64h-5.18v17.3h5.18c1.31,0,2.46-0.22,3.46-0.66s1.83-1.05,2.51-1.83
		s1.18-1.7,1.53-2.76S319.21,477.3,319.21,476.07z"/>
    <path fill="#010001" d="M327.5,486.04v-19.85h1.43v19.85H327.5z"/>
    <path fill="#010001" d="M335.11,475.96c0-1.19,0.21-2.38,0.63-3.57c0.42-1.18,1.03-2.24,1.83-3.18c0.8-0.93,1.79-1.69,2.95-2.28
		c1.17-0.59,2.5-0.88,3.99-0.88c1.77,0,3.29,0.41,4.54,1.22s2.17,1.85,2.77,3.12l-1.18,0.67c-0.34-0.69-0.74-1.27-1.22-1.74
		s-0.99-0.84-1.54-1.13c-0.55-0.29-1.12-0.5-1.72-0.63s-1.19-0.2-1.76-0.2c-1.27,0-2.39,0.26-3.36,0.77c-0.97,0.51-1.79,1.18-2.46,2
		c-0.67,0.82-1.18,1.75-1.53,2.79s-0.52,2.08-0.52,3.12c0,1.18,0.21,2.3,0.62,3.36s0.97,2,1.68,2.81s1.55,1.46,2.52,1.95
		s2.02,0.73,3.14,0.73c0.6,0,1.21-0.07,1.83-0.22s1.23-0.38,1.82-0.7s1.13-0.72,1.64-1.22c0.5-0.49,0.92-1.08,1.26-1.75l1.2,0.59
		c-0.34,0.75-0.79,1.41-1.36,1.99c-0.57,0.58-1.21,1.06-1.92,1.46c-0.71,0.39-1.46,0.69-2.25,0.88c-0.79,0.2-1.57,0.29-2.34,0.29
		c-1.36,0-2.61-0.3-3.74-0.9s-2.1-1.38-2.93-2.34c-0.82-0.96-1.46-2.05-1.92-3.28C335.34,478.48,335.11,477.23,335.11,475.96z"/>
    <path fill="#010001" d="M355.97,486.04l8.46-19.88h1.18l8.46,19.88h-1.54l-2.77-6.55h-9.49l-2.77,6.55H355.97z M365.01,467.9
		l-4.42,10.42h8.76L365.01,467.9z"/>
    <path fill="#010001" d="M392.23,467.45h-7.28v18.59h-1.43v-18.59h-7.28v-1.29h15.99V467.45z"/>
    <path fill="#8A8A8A" d="M138.99,507.61l3.64-9.23h1.46l3.63,9.23h-1.9l-0.84-2.3h-3.24l-0.84,2.3H138.99z M143.35,500.31l-1.33,3.73
		h2.61L143.35,500.31z"/>
    <path fill="#8A8A8A" d="M157.8,507.61v-9.23h4.08c0.42,0,0.82,0.09,1.18,0.27c0.36,0.18,0.67,0.41,0.93,0.7s0.46,0.62,0.61,0.99
		s0.22,0.74,0.22,1.11c0,0.6-0.15,1.14-0.45,1.63s-0.7,0.84-1.21,1.06l2.17,3.47h-2.03l-1.94-3.09h-1.77v3.09L157.8,507.61
		L157.8,507.61z M159.59,502.94h2.25c0.17,0,0.32-0.04,0.46-0.12s0.27-0.18,0.37-0.32c0.1-0.13,0.19-0.29,0.25-0.47
		s0.09-0.38,0.09-0.58c0-0.22-0.03-0.42-0.1-0.6s-0.16-0.34-0.28-0.47s-0.25-0.24-0.4-0.31s-0.31-0.11-0.46-0.11h-2.17
		L159.59,502.94L159.59,502.94z"/>
    <path fill="#8A8A8A" d="M182.34,499.95h-2.94v7.66h-1.79v-7.66h-2.95v-1.57h7.68V499.95z"/>
    <path fill="#8A8A8A" d="M190.8,507.61l3.64-9.23h1.46l3.63,9.23h-1.9l-0.84-2.3h-3.24l-0.84,2.3H190.8z M195.17,500.31l-1.33,3.73
		h2.61L195.17,500.31z"/>
    <path fill="#8A8A8A" d="M214.75,509.3v-11.77h1.48v11.77H214.75z"/>
    <path fill="#8A8A8A" d="M239.93,507.61v-6.11l-2.38,4.55h-0.98l-2.38-4.55v6.11h-1.79v-9.23h1.92l2.73,5.25l2.76-5.25h1.91v9.23
		H239.93z"/>
    <path fill="#8A8A8A" d="M251.81,507.61l3.64-9.23h1.46l3.63,9.23h-1.9l-0.84-2.3h-3.24l-0.84,2.3H251.81z M256.18,500.31l-1.33,3.73
		h2.61L256.18,500.31z"/>
    <path fill="#8A8A8A" d="M270.62,507.61v-9.23h1.79v7.66h4.71v1.57H270.62z"/>
    <path fill="#8A8A8A" d="M287.38,507.61v-9.23h1.79v7.66h4.71v1.57H287.38z"/>
    <path fill="#8A8A8A" d="M307.61,507.67c-0.65,0-1.24-0.13-1.78-0.4c-0.54-0.26-1-0.62-1.38-1.05c-0.39-0.44-0.68-0.94-0.89-1.5
		s-0.31-1.14-0.31-1.73c0-0.62,0.11-1.2,0.33-1.77c0.22-0.56,0.53-1.06,0.92-1.5s0.86-0.78,1.4-1.03c0.54-0.26,1.12-0.38,1.75-0.38
		c0.65,0,1.24,0.14,1.78,0.41s1,0.63,1.38,1.07s0.68,0.95,0.88,1.51s0.31,1.13,0.31,1.72c0,0.62-0.11,1.2-0.33,1.76
		s-0.53,1.05-0.92,1.48c-0.39,0.43-0.85,0.77-1.39,1.03S308.24,507.67,307.61,507.67z M305.05,502.99c0,0.4,0.06,0.79,0.17,1.16
		c0.12,0.37,0.29,0.7,0.51,0.99c0.22,0.29,0.49,0.52,0.81,0.69s0.68,0.26,1.09,0.26c0.42,0,0.78-0.09,1.1-0.27s0.58-0.41,0.8-0.71
		s0.38-0.63,0.49-0.99s0.17-0.74,0.17-1.12c0-0.4-0.06-0.78-0.18-1.16c-0.12-0.37-0.29-0.7-0.51-0.99s-0.49-0.51-0.81-0.68
		c-0.32-0.17-0.67-0.25-1.07-0.25c-0.42,0-0.78,0.09-1.1,0.27s-0.58,0.41-0.81,0.7c-0.22,0.29-0.39,0.62-0.5,0.99
		C305.1,502.24,305.05,502.61,305.05,502.99z"/>
    <path fill="#8A8A8A" d="M322.49,507.61v-9.23h4.08c0.42,0,0.82,0.09,1.18,0.27s0.67,0.41,0.93,0.7c0.26,0.29,0.46,0.62,0.61,0.99
		s0.22,0.74,0.22,1.11c0,0.6-0.15,1.14-0.45,1.63c-0.3,0.49-0.7,0.84-1.21,1.06l2.17,3.47h-2.03l-1.94-3.09h-1.77v3.09
		L322.49,507.61L322.49,507.61z M324.29,502.94h2.25c0.17,0,0.32-0.04,0.46-0.12c0.14-0.08,0.27-0.18,0.37-0.32
		c0.1-0.13,0.19-0.29,0.25-0.47s0.09-0.38,0.09-0.58c0-0.22-0.03-0.42-0.1-0.6s-0.16-0.34-0.28-0.47s-0.25-0.24-0.4-0.31
		s-0.31-0.11-0.46-0.11h-2.17L324.29,502.94L324.29,502.94z"/>
    <path fill="#8A8A8A" d="M339.81,502.93c0-0.56,0.1-1.12,0.3-1.67c0.2-0.55,0.49-1.04,0.86-1.48c0.38-0.43,0.84-0.78,1.38-1.05
		s1.17-0.4,1.87-0.4c0.82,0,1.54,0.19,2.14,0.56s1.05,0.86,1.33,1.46l-1.38,0.95c-0.1-0.26-0.24-0.48-0.4-0.66
		c-0.17-0.18-0.34-0.32-0.54-0.42s-0.4-0.18-0.6-0.23c-0.21-0.05-0.41-0.07-0.6-0.07c-0.42,0-0.8,0.09-1.12,0.27
		s-0.59,0.42-0.8,0.71c-0.21,0.29-0.37,0.62-0.48,0.99s-0.16,0.73-0.16,1.1c0,0.41,0.06,0.8,0.19,1.18s0.3,0.71,0.53,0.99
		s0.5,0.52,0.83,0.69c0.32,0.17,0.67,0.26,1.05,0.26c0.2,0,0.4-0.03,0.61-0.08s0.41-0.13,0.6-0.25c0.2-0.11,0.38-0.26,0.54-0.44
		s0.3-0.39,0.4-0.64l1.47,0.84c-0.14,0.35-0.34,0.65-0.6,0.92c-0.26,0.26-0.57,0.49-0.9,0.67c-0.34,0.18-0.69,0.32-1.07,0.42
		c-0.37,0.1-0.74,0.14-1.11,0.14c-0.64,0-1.23-0.14-1.76-0.42s-0.99-0.64-1.38-1.09c-0.39-0.45-0.69-0.95-0.9-1.52
		S339.81,503.52,339.81,502.93z"/>
    <path fill="#8A8A8A" d="M357.1,507.61l3.64-9.23h1.46l3.63,9.23h-1.9l-0.84-2.3h-3.24l-0.84,2.3H357.1z M361.46,500.31l-1.33,3.73
		h2.61L361.46,500.31z"/>
</g>
  <g>

</g>
</svg>
