<?xml version="1.0" encoding="utf-8"?>
<svg xmlns="http://www.w3.org/2000/svg" viewBox="154.84 181.89 182.92 253.31">
  <g>
    <g>
      <path fill="#A88A7A"
            d="M284.46,428.01v-71.14c-1.56,0.35-3.27,0.52-5.15,0.52c-2.17,0-4.28-0.25-6.33-0.74v71.35h-12.75v1.61h36.98 v-1.61H284.46z"/>
      <path fill="#A88A7A"
            d="M240.69,435.2l29.9-79.24c-0.53-0.18-1.05-0.37-1.57-0.58c-0.02-0.01-0.03-0.01-0.05-0.02l-23.14,61.05 l-25.37-66.93h22.71v-1.63h-10.23l-18.06-47.55l-0.61-1.61l-12.12-31.9c-1.2,0.23-2.47,0.4-3.82,0.5l-30.38,80.58h-10.11v1.61 h24.69v-1.61h-12.75l12.06-31.93h26.64l12.05,31.9h-26.88v1.61h12.75v78.55h-12.75v1.61h27.22v-1.61h-12.75V349.7L240.69,435.2z M182.54,314.34l12.63-33.42l12.63,33.42H182.54z"/>
    </g>
    <path fill="#010001"
          d="M335.52,337.64c0.57-1.3,1.09-2.85,1.55-4.65c0.46-1.8,0.69-4.04,0.69-6.72c0-3.68-0.61-7.06-1.84-10.16 c-1.23-3.1-2.91-5.76-5.05-7.98c-2.14-2.22-4.69-3.94-7.64-5.17c-2.95-1.23-6.14-1.84-9.59-1.84c-5.28,0-9.49,1.59-12.63,4.77 c-3.14,3.18-5.67,7.87-7.58,14.07l-4.02,13.21c-0.46,1.61-1.11,3.31-1.95,5.11c-0.84,1.8-1.94,3.46-3.27,5 c-1.34,1.53-2.97,2.79-4.88,3.79c-1.91,0.99-4.21,1.49-6.89,1.49c-1.84,0-3.85-0.31-6.03-0.92c-2.18-0.61-4.21-1.68-6.09-3.21 c-1.88-1.53-3.43-3.6-4.65-6.2c-1.22-2.6-1.84-5.93-1.84-9.99c0-1.46,0.04-3.01,0.11-4.65c0.08-1.65,0.35-3.37,0.81-5.17 c0.46-1.8,1.19-3.58,2.18-5.34c0.99-1.76,2.41-3.45,4.25-5.05c1.84-1.61,4.17-3.08,7-4.42c2.83-1.34,6.31-2.43,10.44-3.27v-25.16 h-1.26c-0.23,1.76-0.77,3.98-1.61,6.66c-0.84,2.68-2.14,5.27-3.9,7.75c-1.76,2.49-4.04,4.63-6.83,6.43c-2.8,1.8-6.3,2.7-10.51,2.7 h-21.7v-41.46h9.3c2.76,0,5,0.48,6.72,1.44c1.72,0.96,3.1,2.24,4.13,3.85c1.03,1.61,1.84,3.45,2.41,5.51 c0.57,2.07,1.13,4.21,1.67,6.43h1.26v-35.72h-1.26c-0.84,3.45-1.7,6.26-2.58,8.44c-0.88,2.18-1.95,3.9-3.22,5.17 c-1.26,1.26-2.78,2.12-4.54,2.58c-1.76,0.46-3.9,0.69-6.43,0.69h-7.46v-35.49h19.06c3.14,0,5.82,0.38,8.04,1.15 c2.22,0.77,4.13,1.93,5.74,3.5c1.61,1.57,2.99,3.48,4.13,5.74c1.15,2.26,2.22,4.88,3.22,7.87h1.26v-19.87h-65.69v1.61h12.75v22.82 c-0.65,2.35-1.36,4.7-2.16,7.07c-1,2.95-2.45,5.59-4.36,7.92c-1.92,2.34-4.44,4.23-7.58,5.69c-3.14,1.45-7.27,2.18-12.4,2.18 c-3.98,0-7.62-0.61-10.91-1.84c-3.29-1.22-6.11-3.37-8.44-6.43c-2.34-3.06-4.15-7.23-5.45-12.52c-1.3-5.28-1.95-11.94-1.95-19.98 c0-2.83,0.09-5.84,0.29-9.01c0.19-3.18,0.59-6.32,1.2-9.42c0.61-3.1,1.51-6.05,2.7-8.84c1.19-2.79,2.77-5.24,4.77-7.35 c1.99-2.11,4.44-3.79,7.35-5.05c2.91-1.26,6.39-1.9,10.45-1.9c4.36,0,8.02,0.67,10.97,2.01c2.95,1.34,5.38,3.1,7.29,5.28 c1.91,2.18,3.4,4.69,4.48,7.52c1.07,2.83,1.95,5.7,2.64,8.61h1.26v-22.97h-1.72c-0.54,0.61-1.13,1.17-1.78,1.67 c-0.65,0.5-1.74,0.75-3.27,0.75c-1.15,0-2.33-0.23-3.56-0.69c-1.22-0.46-2.57-0.98-4.02-1.55c-1.46-0.57-3.1-1.09-4.94-1.55 c-1.84-0.46-3.95-0.69-6.32-0.69c-5.9,0-11.33,1.17-16.31,3.5c-4.98,2.34-9.3,5.5-12.98,9.47c-3.67,3.98-6.55,8.58-8.61,13.78 c-2.07,5.21-3.1,10.68-3.1,16.42c0,6.74,1.26,12.67,3.79,17.8c2.53,5.13,5.67,9.57,9.42,13.32c4.06,3.98,8.36,6.85,12.92,8.61 c4.55,1.76,9.24,2.64,14.07,2.64c1.15,0,2.25-0.05,3.31-0.13c1.34-0.1,2.62-0.27,3.82-0.5c0,0,0,0,0,0c2.14-0.42,4.08-0.9,5.8-1.44 c1.72-0.54,3.25-1.01,4.59-1.44c1.34-0.42,2.58-0.63,3.73-0.63c1.45,0,2.53,0.25,3.22,0.75c0.68,0.49,1.28,1.04,1.81,1.64v33.01 h-7.04l0.61,1.61c12.04,0,37.17,0,37.95,0c1.03,0,2.38,0.85,2.93,1.56c0.56,0.72,0.69,1.21,0.69,2.35c0,1.3-0.31,2.83-0.92,4.59 c-0.61,1.76-1.15,3.41-1.61,4.94c-0.38,1.3-0.67,2.49-0.86,3.56c-0.19,1.07-0.36,2.14-0.52,3.22c-0.15,1.07-0.25,2.22-0.29,3.45 c-0.04,1.22-0.06,2.64-0.06,4.25c0,4.52,0.75,8.57,2.24,12.17c1.49,3.6,3.48,6.66,5.97,9.19c2.48,2.51,5.33,4.44,8.56,5.78 c0.02,0.01,0.03,0.01,0.05,0.02c0.52,0.21,1.04,0.4,1.57,0.58c0.78,0.27,1.57,0.5,2.38,0.69c2.05,0.49,4.16,0.74,6.33,0.74 c1.88,0,3.59-0.18,5.15-0.52c1.68-0.37,3.18-0.94,4.5-1.72c2.53-1.49,4.56-3.29,6.09-5.4c1.53-2.11,2.68-4.27,3.45-6.49 c0.76-2.22,1.38-4.06,1.84-5.51l4.37-13.9c0.61-1.99,1.32-3.96,2.12-5.91c0.8-1.95,1.8-3.71,2.99-5.28 c1.19-1.57,2.64-2.85,4.36-3.85c1.72-1,3.81-1.49,6.26-1.49c3.06,0,5.59,0.63,7.58,1.89c1.99,1.26,3.6,2.85,4.82,4.77 c1.22,1.91,2.09,3.98,2.58,6.2c0.5,2.22,0.75,4.25,0.75,6.09c0,3.29-0.59,6.18-1.78,8.67c-1.19,2.49-2.76,4.61-4.71,6.37 c-1.95,1.76-4.21,3.2-6.78,4.31c-2.57,1.11-5.22,1.89-7.98,2.35v1.38h20.79v-1.61c-1.07-0.61-1.74-1.09-2.01-1.43 c-0.27-0.35-0.4-1.02-0.4-2.01c0-1.07,0.23-2.13,0.69-3.16C334.43,340.11,334.95,338.94,335.52,337.64z"/>
  </g>
</svg>
