<?xml version="1.0" encoding="utf-8"?>
<svg xmlns="http://www.w3.org/2000/svg" viewBox="365.295 171.075 290.41 354.45">
  <polygon fill="none" points="438.925 318.265 466.995 318.265 452.965 281.135"/>
  <path fill="none"
        d="M 482.005 300.885 L 482.005 264.205 C 481.415 263.535 480.745 262.925 479.995 262.385 C 479.225 261.835 478.035 261.555 476.425 261.555 C 475.145 261.555 473.765 261.795 472.275 262.255 C 470.785 262.725 469.085 263.255 467.175 263.845 C 465.265 264.435 463.115 264.975 460.735 265.445 L 474.195 300.885 L 482.005 300.885 Z"/>
  <path fill="none"
        d="M 506.305 355.505 L 506.305 357.315 L 481.075 357.315 L 509.265 431.675 L 534.985 363.845 C 531.395 362.355 528.215 360.215 525.465 357.425 C 522.695 354.615 520.485 351.215 518.835 347.215 C 517.175 343.215 516.345 338.705 516.345 333.685 C 516.345 331.895 516.365 330.325 516.405 328.965 C 516.445 327.605 516.555 326.325 516.725 325.135 C 516.895 323.945 517.085 322.755 517.295 321.565 C 517.505 320.375 517.825 319.055 518.255 317.605 C 518.765 315.905 519.355 314.075 520.045 312.115 C 520.725 310.155 521.065 308.455 521.065 307.015 C 521.065 305.735 520.915 305.195 520.295 304.395 C 519.675 303.595 518.175 302.655 517.035 302.655 C 516.165 302.655 488.255 302.655 474.865 302.655 L 494.935 355.485 L 506.305 355.485 L 506.305 355.505 Z"/>
  <g transform="matrix(1, 0, 0, 1, -260.075012, 16.22501)">
    <path fill="#A88A7A"
          d="M812.25,428.34V349.3c-1.73,0.38-3.64,0.58-5.72,0.58c-2.42,0-4.76-0.28-7.04-0.82v79.28h-14.16v1.79h41.09 v-1.79L812.25,428.34L812.25,428.34z"/>
    <path fill="#A88A7A"
          d="M763.62,436.34l33.23-88.04c-0.59-0.2-1.17-0.41-1.74-0.65c-0.02-0.01-0.04-0.02-0.05-0.02l-25.72,67.83 l-28.19-74.36h25.23v-1.81h-11.37l-20.07-52.83l-0.68-1.79l-13.46-35.44c-1.33,0.26-2.75,0.44-4.24,0.56l-33.76,89.53h-11.23v1.79 H699v-1.79h-14.16l13.4-35.47h29.6l13.39,35.45h-29.86v1.79h14.16v87.28h-14.16v1.79h30.24v-1.79h-14.16v-87.01L763.62,436.34z M699,302.04l14.03-37.13l14.04,37.13H699z"/>
  </g>
  <path fill="#010001"
        d="M 608.905 344.155 C 609.545 342.705 610.115 340.985 610.625 338.985 C 611.135 336.985 611.395 334.495 611.395 331.525 C 611.395 327.445 610.715 323.675 609.355 320.235 C 607.995 316.795 606.125 313.835 603.735 311.365 C 601.355 308.895 598.525 306.985 595.245 305.625 C 591.975 304.265 588.415 303.585 584.595 303.585 C 578.725 303.585 574.045 305.345 570.555 308.885 C 567.065 312.415 564.255 317.625 562.135 324.515 L 557.665 339.185 C 557.155 340.975 556.435 342.865 555.495 344.865 C 554.555 346.865 553.345 348.715 551.855 350.415 C 550.365 352.115 548.555 353.515 546.435 354.625 C 544.305 355.725 541.755 356.285 538.775 356.285 C 536.735 356.285 534.495 355.945 532.075 355.265 C 529.655 354.585 527.395 353.395 525.315 351.695 C 523.225 349.995 521.505 347.695 520.145 344.805 C 518.785 341.915 518.105 338.215 518.105 333.705 C 518.105 332.085 518.145 330.365 518.235 328.535 C 518.315 326.705 518.615 324.795 519.125 322.795 C 519.635 320.795 520.445 318.815 521.545 316.865 C 522.645 314.905 524.225 313.035 526.265 311.255 C 528.305 309.465 530.905 307.825 534.045 306.345 C 537.195 304.855 541.055 303.645 545.645 302.705 L 545.645 274.725 L 544.245 274.725 C 543.985 276.685 543.395 279.145 542.455 282.125 C 541.515 285.105 540.075 287.975 538.115 290.735 C 536.155 293.505 533.625 295.885 530.525 297.885 C 527.415 299.885 523.525 300.885 518.845 300.885 L 494.725 300.885 L 494.725 254.825 L 505.055 254.825 C 508.115 254.825 510.605 255.355 512.515 256.425 C 514.425 257.485 515.965 258.915 517.105 260.695 C 518.255 262.485 519.145 264.525 519.785 266.815 C 520.425 269.115 521.035 271.495 521.635 273.965 L 523.035 273.965 L 523.035 234.285 L 521.635 234.285 C 520.695 238.115 519.745 241.235 518.765 243.665 C 517.785 246.085 516.595 248.005 515.195 249.405 C 513.795 250.805 512.105 251.765 510.155 252.275 C 508.195 252.785 505.815 253.045 503.005 253.045 L 494.715 253.045 L 494.715 213.615 L 515.895 213.615 C 519.385 213.615 522.355 214.045 524.825 214.895 C 527.295 215.745 529.415 217.045 531.205 218.785 C 532.995 220.525 534.525 222.655 535.795 225.165 C 537.075 227.675 538.265 230.585 539.365 233.905 L 540.765 233.905 L 540.765 211.825 L 467.775 211.825 L 467.775 213.615 L 481.935 213.615 L 481.935 238.965 C 481.205 241.575 480.425 244.185 479.535 246.815 C 478.425 250.095 476.815 253.025 474.685 255.615 C 472.555 258.215 469.755 260.315 466.265 261.935 C 462.775 263.555 458.185 264.355 452.485 264.355 C 448.065 264.355 444.015 263.675 440.365 262.315 C 436.705 260.955 433.585 258.575 430.985 255.165 C 428.385 251.765 426.365 247.125 424.925 241.255 C 423.475 235.385 422.755 227.985 422.755 219.055 C 422.755 215.905 422.855 212.565 423.075 209.035 C 423.285 205.505 423.735 202.015 424.415 198.575 C 425.095 195.135 426.095 191.855 427.415 188.755 C 428.735 185.645 430.495 182.925 432.715 180.585 C 434.925 178.245 437.645 176.375 440.885 174.975 C 444.115 173.575 447.985 172.865 452.495 172.865 C 457.345 172.865 461.405 173.615 464.675 175.095 C 467.945 176.585 470.655 178.545 472.775 180.965 C 474.895 183.385 476.555 186.175 477.745 189.325 C 478.935 192.475 479.915 195.665 480.685 198.895 L 482.085 198.895 L 482.085 173.375 L 480.175 173.375 C 479.575 174.055 478.915 174.675 478.195 175.225 C 477.465 175.775 476.255 176.055 474.555 176.055 C 473.275 176.055 471.965 175.805 470.595 175.285 C 469.235 174.775 467.745 174.205 466.125 173.565 C 464.505 172.925 462.685 172.355 460.635 171.845 C 458.595 171.335 456.255 171.075 453.615 171.075 C 447.065 171.075 441.025 172.375 435.495 174.965 C 429.965 177.565 425.155 181.075 421.075 185.495 C 416.995 189.915 413.805 195.025 411.505 200.805 C 409.205 206.595 408.065 212.675 408.065 219.055 C 408.065 226.545 409.465 233.135 412.275 238.835 C 415.085 244.535 418.575 249.475 422.735 253.635 C 427.245 258.055 432.025 261.245 437.095 263.205 C 442.155 265.165 447.365 266.135 452.725 266.135 C 454.005 266.135 455.225 266.085 456.395 265.995 C 457.885 265.875 459.305 265.695 460.635 265.435 C 463.015 264.965 465.165 264.435 467.075 263.835 C 468.985 263.235 470.695 262.705 472.175 262.245 C 473.665 261.775 475.045 261.545 476.325 261.545 C 477.935 261.545 479.135 261.825 479.895 262.375 C 480.645 262.925 481.315 263.525 481.905 264.195 L 481.905 300.875 L 474.085 300.875 L 474.765 302.665 C 488.145 302.665 516.065 302.665 516.935 302.665 C 518.075 302.665 519.575 303.605 520.195 304.405 C 520.815 305.205 520.965 305.745 520.965 307.025 C 520.965 308.475 520.625 310.175 519.945 312.125 C 519.265 314.085 518.665 315.905 518.155 317.615 C 517.735 319.065 517.415 320.375 517.195 321.575 C 516.985 322.765 516.795 323.955 516.625 325.145 C 516.455 326.335 516.345 327.615 516.305 328.975 C 516.265 330.335 516.245 331.905 516.245 333.695 C 516.245 338.715 517.075 343.225 518.735 347.225 C 520.395 351.225 522.605 354.625 525.365 357.435 C 528.115 360.225 531.285 362.365 534.885 363.855 C 534.905 363.865 534.925 363.875 534.935 363.875 C 535.515 364.115 536.095 364.325 536.675 364.525 C 537.545 364.825 538.425 365.075 539.315 365.285 C 541.595 365.825 543.935 366.105 546.355 366.105 C 548.445 366.105 550.345 365.905 552.075 365.525 C 553.945 365.115 555.615 364.475 557.065 363.615 C 559.875 361.955 562.125 359.955 563.825 357.615 C 565.525 355.275 566.805 352.875 567.655 350.405 C 568.505 347.935 569.185 345.895 569.695 344.285 L 574.545 328.845 C 575.225 326.635 576.015 324.445 576.905 322.275 C 577.795 320.105 578.905 318.145 580.225 316.405 C 581.545 314.665 583.165 313.235 585.075 312.135 C 586.985 311.025 589.305 310.475 592.025 310.475 C 595.425 310.475 598.235 311.175 600.445 312.575 C 602.655 313.975 604.445 315.745 605.805 317.875 C 607.165 320.005 608.125 322.295 608.675 324.765 C 609.225 327.235 609.505 329.485 609.505 331.525 C 609.505 335.185 608.845 338.395 607.525 341.155 C 606.205 343.915 604.465 346.275 602.295 348.235 C 600.125 350.195 597.615 351.785 594.765 353.015 C 591.915 354.245 588.955 355.115 585.895 355.625 L 585.895 357.155 L 608.995 357.155 L 608.995 355.365 C 607.805 354.685 607.055 354.155 606.765 353.775 C 606.465 353.395 606.315 352.645 606.315 351.545 C 606.315 350.355 606.575 349.185 607.085 348.035 C 607.695 346.905 608.275 345.605 608.905 344.155 Z"/>
  <g transform="matrix(1, 0, 0, 1, -260.075012, 16.22501)">
    <path fill="#010001"
          d="M625.37,475.96c0-1.19,0.21-2.38,0.63-3.57c0.42-1.18,1.03-2.24,1.83-3.18c0.8-0.93,1.79-1.69,2.95-2.28 c1.17-0.59,2.5-0.88,3.99-0.88c1.77,0,3.29,0.41,4.54,1.22s2.17,1.85,2.77,3.12l-1.18,0.67c-0.34-0.69-0.74-1.27-1.22-1.74 s-0.99-0.84-1.54-1.13s-1.12-0.5-1.72-0.63s-1.19-0.2-1.76-0.2c-1.27,0-2.39,0.26-3.36,0.77c-0.97,0.51-1.79,1.18-2.46,2 c-0.67,0.82-1.18,1.75-1.53,2.79s-0.52,2.08-0.52,3.12c0,1.18,0.21,2.3,0.62,3.36s0.97,2,1.68,2.81s1.55,1.46,2.52,1.95 s2.02,0.73,3.14,0.73c0.6,0,1.21-0.07,1.83-0.22s1.23-0.38,1.82-0.7s1.13-0.72,1.64-1.22c0.5-0.49,0.92-1.08,1.26-1.75l1.2,0.59 c-0.34,0.75-0.79,1.41-1.36,1.99s-1.21,1.06-1.92,1.46c-0.71,0.39-1.46,0.69-2.25,0.88c-0.79,0.2-1.57,0.29-2.34,0.29 c-1.36,0-2.61-0.3-3.74-0.9s-2.1-1.38-2.93-2.34c-0.82-0.96-1.46-2.05-1.92-3.28C625.6,478.48,625.37,477.23,625.37,475.96z"/>
    <path fill="#010001"
          d="M645.95,486.04l8.46-19.88h1.18l8.46,19.88h-1.54l-2.77-6.55h-9.49l-2.77,6.55H645.95z M654.99,467.9 l-4.42,10.42h8.76L654.99,467.9z"/>
    <path fill="#010001"
          d="M681.23,469.46c-1.29-1.44-3.11-2.16-5.46-2.16c-1.94,0-3.36,0.37-4.24,1.11s-1.33,1.73-1.33,2.98 c0,0.63,0.11,1.17,0.34,1.6c0.22,0.43,0.57,0.79,1.05,1.08c0.48,0.29,1.08,0.54,1.82,0.76s1.61,0.42,2.62,0.63 c1.08,0.22,2.05,0.47,2.91,0.74s1.59,0.61,2.2,1.02s1.07,0.92,1.4,1.51c0.33,0.6,0.49,1.33,0.49,2.21s-0.17,1.64-0.52,2.3 c-0.34,0.65-0.83,1.2-1.46,1.64s-1.37,0.77-2.24,0.99s-1.83,0.34-2.9,0.34c-3.1,0-5.72-0.99-7.87-2.97l0.76-1.15 c0.84,0.88,1.87,1.57,3.08,2.09c1.21,0.51,2.58,0.77,4.09,0.77c1.74,0,3.09-0.32,4.07-0.95s1.47-1.6,1.47-2.88 c0-0.65-0.13-1.21-0.38-1.67s-0.64-0.85-1.16-1.19c-0.52-0.34-1.17-0.62-1.95-0.87c-0.77-0.24-1.68-0.48-2.73-0.7 c-1.06-0.22-2-0.46-2.81-0.71s-1.5-0.57-2.06-0.95s-0.98-0.84-1.26-1.39c-0.28-0.54-0.42-1.22-0.42-2.04c0-0.9,0.17-1.69,0.52-2.38 c0.34-0.69,0.83-1.27,1.44-1.75c0.62-0.48,1.35-0.83,2.21-1.08c0.86-0.24,1.81-0.36,2.86-0.36c1.29,0,2.44,0.19,3.44,0.57 c1.01,0.38,1.92,0.97,2.74,1.75L681.23,469.46z"/>
    <path fill="#010001"
          d="M686.83,486.04l8.46-19.88h1.18l8.46,19.88h-1.54l-2.77-6.55h-9.49l-2.77,6.55H686.83z M695.87,467.9 l-4.42,10.42h8.76L695.87,467.9z"/>
    <path fill="#010001"
          d="M735.55,484.75v1.29H722.3v-19.88h12.99v1.29h-11.56v7.81h10.11v1.23h-10.11v8.26L735.55,484.75L735.55,484.75 z"/>
    <path fill="#010001"
          d="M754.14,469.46c-1.29-1.44-3.11-2.16-5.46-2.16c-1.94,0-3.36,0.37-4.24,1.11s-1.33,1.73-1.33,2.98 c0,0.63,0.11,1.17,0.34,1.6c0.22,0.43,0.57,0.79,1.05,1.08c0.48,0.29,1.08,0.54,1.82,0.76s1.61,0.42,2.62,0.63 c1.08,0.22,2.05,0.47,2.91,0.74s1.59,0.61,2.2,1.02s1.07,0.92,1.4,1.51c0.33,0.6,0.49,1.33,0.49,2.21s-0.17,1.64-0.52,2.3 c-0.34,0.65-0.83,1.2-1.46,1.64s-1.37,0.77-2.24,0.99s-1.83,0.34-2.9,0.34c-3.1,0-5.72-0.99-7.87-2.97l0.76-1.15 c0.84,0.88,1.87,1.57,3.08,2.09c1.21,0.51,2.58,0.77,4.09,0.77c1.74,0,3.09-0.32,4.07-0.95s1.47-1.6,1.47-2.88 c0-0.65-0.13-1.21-0.38-1.67s-0.64-0.85-1.16-1.19c-0.52-0.34-1.17-0.62-1.95-0.87c-0.77-0.24-1.68-0.48-2.73-0.7 c-1.06-0.22-2-0.46-2.81-0.71s-1.5-0.57-2.06-0.95s-0.98-0.84-1.26-1.39c-0.28-0.54-0.42-1.22-0.42-2.04c0-0.9,0.17-1.69,0.52-2.38 c0.34-0.69,0.83-1.27,1.44-1.75c0.62-0.48,1.35-0.83,2.21-1.08c0.86-0.24,1.81-0.36,2.86-0.36c1.29,0,2.44,0.19,3.44,0.57 c1.01,0.38,1.92,0.97,2.74,1.75L754.14,469.46z"/>
    <path fill="#010001"
          d="M783.04,469.46c-1.29-1.44-3.11-2.16-5.46-2.16c-1.94,0-3.36,0.37-4.24,1.11s-1.33,1.73-1.33,2.98 c0,0.63,0.11,1.17,0.34,1.6c0.22,0.43,0.57,0.79,1.05,1.08c0.48,0.29,1.08,0.54,1.82,0.76s1.61,0.42,2.62,0.63 c1.08,0.22,2.05,0.47,2.91,0.74s1.59,0.61,2.2,1.02s1.07,0.92,1.4,1.51c0.33,0.6,0.49,1.33,0.49,2.21s-0.17,1.64-0.52,2.3 c-0.34,0.65-0.83,1.2-1.46,1.64s-1.37,0.77-2.24,0.99s-1.83,0.34-2.9,0.34c-3.1,0-5.72-0.99-7.87-2.97l0.76-1.15 c0.84,0.88,1.87,1.57,3.08,2.09c1.21,0.51,2.58,0.77,4.09,0.77c1.74,0,3.09-0.32,4.07-0.95s1.47-1.6,1.47-2.88 c0-0.65-0.13-1.21-0.38-1.67s-0.64-0.85-1.16-1.19c-0.52-0.34-1.17-0.62-1.95-0.87c-0.77-0.24-1.68-0.48-2.73-0.7 c-1.06-0.22-2-0.46-2.81-0.71s-1.5-0.57-2.06-0.95s-0.98-0.84-1.26-1.39c-0.28-0.54-0.42-1.22-0.42-2.04c0-0.9,0.17-1.69,0.52-2.38 c0.34-0.69,0.83-1.27,1.44-1.75c0.62-0.48,1.35-0.83,2.21-1.08c0.86-0.24,1.81-0.36,2.86-0.36c1.29,0,2.44,0.19,3.44,0.57 c1.01,0.38,1.92,0.97,2.74,1.75L783.04,469.46z"/>
    <path fill="#010001" d="M791.88,486.04v-19.85h1.43v19.85H791.88z"/>
    <path fill="#010001" d="M803.92,468.85v17.19h-1.43v-19.88h1.09l13.94,17.5v-17.47h1.43v19.85h-1.32L803.92,468.85z"/>
    <path fill="#010001"
          d="M828.14,486.04v-19.88h6.61c1.57,0,2.94,0.26,4.13,0.78c1.18,0.52,2.17,1.23,2.95,2.13s1.37,1.95,1.76,3.15 s0.59,2.49,0.59,3.85c0,1.51-0.22,2.88-0.66,4.1s-1.07,2.27-1.89,3.14c-0.82,0.87-1.82,1.54-2.98,2.02 c-1.17,0.48-2.47,0.71-3.91,0.71H828.14z M842.76,476.07c0-1.25-0.18-2.4-0.53-3.46s-0.87-1.96-1.55-2.73 c-0.68-0.76-1.52-1.36-2.51-1.79c-0.99-0.43-2.13-0.64-3.42-0.64h-5.18v17.3h5.18c1.31,0,2.46-0.22,3.46-0.66s1.83-1.05,2.51-1.83 s1.18-1.7,1.53-2.76S842.76,477.3,842.76,476.07z"/>
    <path fill="#010001" d="M851.05,486.04v-19.85h1.43v19.85H851.05z"/>
    <path fill="#010001"
          d="M858.66,475.96c0-1.19,0.21-2.38,0.63-3.57c0.42-1.18,1.03-2.24,1.83-3.18c0.8-0.93,1.79-1.69,2.95-2.28 c1.17-0.59,2.5-0.88,3.99-0.88c1.77,0,3.29,0.41,4.54,1.22s2.17,1.85,2.77,3.12l-1.18,0.67c-0.34-0.69-0.74-1.27-1.22-1.74 s-0.99-0.84-1.54-1.13s-1.12-0.5-1.72-0.63s-1.19-0.2-1.76-0.2c-1.27,0-2.39,0.26-3.36,0.77c-0.97,0.51-1.79,1.18-2.46,2 c-0.67,0.82-1.18,1.75-1.53,2.79s-0.52,2.08-0.52,3.12c0,1.18,0.21,2.3,0.62,3.36s0.97,2,1.68,2.81s1.55,1.46,2.52,1.95 s2.02,0.73,3.14,0.73c0.6,0,1.21-0.07,1.83-0.22s1.23-0.38,1.82-0.7s1.13-0.72,1.64-1.22c0.5-0.49,0.92-1.08,1.26-1.75l1.2,0.59 c-0.34,0.75-0.79,1.41-1.36,1.99s-1.21,1.06-1.92,1.46c-0.71,0.39-1.46,0.69-2.25,0.88c-0.79,0.2-1.57,0.29-2.34,0.29 c-1.36,0-2.61-0.3-3.74-0.9s-2.1-1.38-2.93-2.34c-0.82-0.96-1.46-2.05-1.92-3.28C858.89,478.48,858.66,477.23,858.66,475.96z"/>
    <path fill="#010001"
          d="M879.52,486.04l8.46-19.88h1.18l8.46,19.88h-1.54l-2.77-6.55h-9.49l-2.77,6.55H879.52z M888.56,467.9 l-4.42,10.42h8.76L888.56,467.9z"/>
    <path fill="#010001" d="M915.78,467.45h-7.28v18.59h-1.43v-18.59h-7.28v-1.29h15.99L915.78,467.45L915.78,467.45z"/>
    <path fill="#A88A7A"
          d="M662.54,507.61l3.64-9.23h1.46l3.63,9.23h-1.9l-0.84-2.3h-3.24l-0.84,2.3H662.54z M666.9,500.31l-1.33,3.73 h2.61L666.9,500.31z"/>
    <path fill="#A88A7A"
          d="M681.35,507.61v-9.23h4.08c0.42,0,0.82,0.09,1.18,0.27s0.67,0.41,0.93,0.7s0.46,0.62,0.61,0.99 s0.22,0.74,0.22,1.11c0,0.6-0.15,1.14-0.45,1.63s-0.7,0.84-1.21,1.06l2.17,3.47h-2.03l-1.94-3.09h-1.77v3.09L681.35,507.61 L681.35,507.61z M683.14,502.94h2.25c0.17,0,0.32-0.04,0.46-0.12s0.27-0.18,0.37-0.32c0.1-0.13,0.19-0.29,0.25-0.47 s0.09-0.38,0.09-0.58c0-0.22-0.03-0.42-0.1-0.6c-0.07-0.18-0.16-0.34-0.28-0.47c-0.12-0.13-0.25-0.24-0.4-0.31 s-0.31-0.11-0.46-0.11h-2.17v2.98H683.14z"/>
    <path fill="#A88A7A" d="M705.89,499.95h-2.94v7.66h-1.79v-7.66h-2.95v-1.57h7.68V499.95z"/>
    <path fill="#A88A7A"
          d="M714.35,507.61l3.64-9.23h1.46l3.63,9.23h-1.9l-0.84-2.3h-3.24l-0.84,2.3H714.35z M718.72,500.31l-1.33,3.73 H720L718.72,500.31z"/>
    <path fill="#A88A7A" d="M738.3,509.3v-11.77h1.48v11.77H738.3z"/>
    <path fill="#A88A7A"
          d="M763.48,507.61v-6.11l-2.38,4.55h-0.98l-2.38-4.55v6.11h-1.79v-9.23h1.92l2.73,5.25l2.76-5.25h1.91v9.23 H763.48z"/>
    <path fill="#A88A7A"
          d="M775.36,507.61l3.64-9.23h1.46l3.63,9.23h-1.9l-0.84-2.3h-3.24l-0.84,2.3H775.36z M779.73,500.31l-1.33,3.73 h2.61L779.73,500.31z"/>
    <path fill="#A88A7A" d="M794.17,507.61v-9.23h1.79v7.66h4.71v1.57H794.17z"/>
    <path fill="#A88A7A" d="M810.93,507.61v-9.23h1.79v7.66h4.71v1.57H810.93z"/>
    <path fill="#A88A7A"
          d="M831.16,507.67c-0.65,0-1.24-0.13-1.78-0.4c-0.54-0.26-1-0.62-1.38-1.05c-0.39-0.44-0.68-0.94-0.89-1.5 s-0.31-1.14-0.31-1.73c0-0.62,0.11-1.2,0.33-1.77c0.22-0.56,0.53-1.06,0.92-1.5s0.86-0.78,1.4-1.03c0.54-0.26,1.12-0.38,1.75-0.38 c0.65,0,1.24,0.14,1.78,0.41c0.54,0.27,1,0.63,1.38,1.07s0.68,0.95,0.88,1.51s0.31,1.13,0.31,1.72c0,0.62-0.11,1.2-0.33,1.76 c-0.22,0.56-0.53,1.05-0.92,1.48c-0.39,0.43-0.85,0.77-1.39,1.03S831.79,507.67,831.16,507.67z M828.6,502.99 c0,0.4,0.06,0.79,0.17,1.16c0.12,0.37,0.29,0.7,0.51,0.99c0.22,0.29,0.49,0.52,0.81,0.69s0.68,0.26,1.09,0.26 c0.42,0,0.78-0.09,1.1-0.27c0.32-0.18,0.58-0.41,0.8-0.71s0.38-0.63,0.49-0.99s0.17-0.74,0.17-1.12c0-0.4-0.06-0.78-0.18-1.16 c-0.12-0.37-0.29-0.7-0.51-0.99s-0.49-0.51-0.81-0.68c-0.32-0.17-0.67-0.25-1.07-0.25c-0.42,0-0.78,0.09-1.1,0.27 c-0.32,0.18-0.58,0.41-0.81,0.7c-0.22,0.29-0.39,0.62-0.5,0.99C828.65,502.24,828.6,502.61,828.6,502.99z"/>
    <path fill="#A88A7A"
          d="M846.04,507.61v-9.23h4.08c0.42,0,0.82,0.09,1.18,0.27s0.67,0.41,0.93,0.7s0.46,0.62,0.61,0.99 s0.22,0.74,0.22,1.11c0,0.6-0.15,1.14-0.45,1.63s-0.7,0.84-1.21,1.06l2.17,3.47h-2.03l-1.94-3.09h-1.77v3.09L846.04,507.61 L846.04,507.61z M847.84,502.94h2.25c0.17,0,0.32-0.04,0.46-0.12s0.27-0.18,0.37-0.32c0.1-0.13,0.19-0.29,0.25-0.47 s0.09-0.38,0.09-0.58c0-0.22-0.03-0.42-0.1-0.6c-0.07-0.18-0.16-0.34-0.28-0.47c-0.12-0.13-0.25-0.24-0.4-0.31 s-0.31-0.11-0.46-0.11h-2.17v2.98H847.84z"/>
    <path fill="#A88A7A"
          d="M863.36,502.93c0-0.56,0.1-1.12,0.3-1.67c0.2-0.55,0.49-1.04,0.86-1.48c0.38-0.43,0.84-0.78,1.38-1.05 s1.17-0.4,1.87-0.4c0.82,0,1.54,0.19,2.14,0.56c0.6,0.37,1.05,0.86,1.33,1.46l-1.38,0.95c-0.1-0.26-0.24-0.48-0.4-0.66 c-0.17-0.18-0.34-0.32-0.54-0.42c-0.2-0.1-0.4-0.18-0.6-0.23c-0.21-0.05-0.41-0.07-0.6-0.07c-0.42,0-0.8,0.09-1.12,0.27 s-0.59,0.42-0.8,0.71c-0.21,0.29-0.37,0.62-0.48,0.99s-0.16,0.73-0.16,1.1c0,0.41,0.06,0.8,0.19,1.18s0.3,0.71,0.53,0.99 s0.5,0.52,0.83,0.69c0.32,0.17,0.67,0.26,1.05,0.26c0.2,0,0.4-0.03,0.61-0.08s0.41-0.13,0.6-0.25c0.2-0.11,0.38-0.26,0.54-0.44 s0.3-0.39,0.4-0.64l1.47,0.84c-0.14,0.35-0.34,0.65-0.6,0.92c-0.26,0.26-0.57,0.49-0.9,0.67c-0.34,0.18-0.69,0.32-1.07,0.42 c-0.37,0.1-0.74,0.14-1.11,0.14c-0.64,0-1.23-0.14-1.76-0.42s-0.99-0.64-1.38-1.09c-0.39-0.45-0.69-0.95-0.9-1.52 S863.36,503.52,863.36,502.93z"/>
    <path fill="#A88A7A"
          d="M880.65,507.61l3.64-9.23h1.46l3.63,9.23h-1.9l-0.84-2.3h-3.24l-0.84,2.3H880.65z M885.01,500.31l-1.33,3.73 h2.61L885.01,500.31z"/>
  </g>
</svg>
