<?xml version="1.0" encoding="utf-8"?>
<svg xmlns="http://www.w3.org/2000/svg" viewBox="101.82 181.89 290.41 322.16">
  <polygon fill="none" points="175.45,302.04 203.52,302.04 189.49,264.91 "/>
  <path fill="none"
        d="M218.53,284.66v-36.68c-0.59-0.67-1.26-1.28-2.01-1.82c-0.77-0.55-1.96-0.83-3.57-0.83 c-1.28,0-2.66,0.24-4.15,0.7c-1.49,0.47-3.19,1-5.1,1.59c-1.91,0.59-4.06,1.13-6.44,1.6c0,0,0,0,0,0l13.46,35.44H218.53z"/>
  <path fill="none"
        d="M242.83,339.28v1.81h-25.23l28.19,74.36l25.72-67.83c-3.59-1.49-6.77-3.63-9.52-6.42 c-2.77-2.81-4.98-6.21-6.63-10.21c-1.66-4-2.49-8.51-2.49-13.53c0-1.79,0.02-3.36,0.06-4.72c0.04-1.36,0.15-2.64,0.32-3.83 c0.17-1.19,0.36-2.38,0.57-3.57c0.21-1.19,0.53-2.51,0.96-3.96c0.51-1.7,1.1-3.53,1.79-5.49c0.68-1.96,1.02-3.66,1.02-5.1 c0-1.28-0.15-1.82-0.77-2.62c-0.62-0.8-2.12-1.74-3.26-1.74c-0.87,0-28.78,0-42.17,0l20.07,52.83H242.83z"/>
  <g>
    <g>
      <path fill="#A88A7A"
            d="M284.46,428.01v-71.14c-1.56,0.35-3.27,0.52-5.15,0.52c-2.17,0-4.28-0.25-6.33-0.74v71.35h-12.75v1.61h36.98 v-1.61H284.46z"/>
      <path fill="#A88A7A"
            d="M240.69,435.2l29.9-79.24c-0.53-0.18-1.05-0.37-1.57-0.58c-0.02-0.01-0.03-0.01-0.05-0.02l-23.14,61.05 l-25.37-66.93h22.71v-1.63h-10.23l-18.06-47.55l-0.61-1.61l-12.12-31.9c-1.2,0.23-2.47,0.4-3.82,0.5l-30.38,80.58h-10.11v1.61 h24.69v-1.61h-12.75l12.06-31.93h26.64l12.05,31.9h-26.88v1.61h12.75v78.55h-12.75v1.61h27.22v-1.61h-12.75V349.7L240.69,435.2z M182.54,314.34l12.63-33.42l12.63,33.42H182.54z"/>
    </g>
    <path fill="#010001"
          d="M335.52,337.64c0.57-1.3,1.09-2.85,1.55-4.65c0.46-1.8,0.69-4.04,0.69-6.72c0-3.68-0.61-7.06-1.84-10.16 c-1.23-3.1-2.91-5.76-5.05-7.98c-2.14-2.22-4.69-3.94-7.64-5.17c-2.95-1.23-6.14-1.84-9.59-1.84c-5.28,0-9.49,1.59-12.63,4.77 c-3.14,3.18-5.67,7.87-7.58,14.07l-4.02,13.21c-0.46,1.61-1.11,3.31-1.95,5.11c-0.84,1.8-1.94,3.46-3.27,5 c-1.34,1.53-2.97,2.79-4.88,3.79c-1.91,0.99-4.21,1.49-6.89,1.49c-1.84,0-3.85-0.31-6.03-0.92c-2.18-0.61-4.21-1.68-6.09-3.21 c-1.88-1.53-3.43-3.6-4.65-6.2c-1.22-2.6-1.84-5.93-1.84-9.99c0-1.46,0.04-3.01,0.11-4.65c0.08-1.65,0.35-3.37,0.81-5.17 c0.46-1.8,1.19-3.58,2.18-5.34c0.99-1.76,2.41-3.45,4.25-5.05c1.84-1.61,4.17-3.08,7-4.42c2.83-1.34,6.31-2.43,10.44-3.27v-25.16 h-1.26c-0.23,1.76-0.77,3.98-1.61,6.66c-0.84,2.68-2.14,5.27-3.9,7.75c-1.76,2.49-4.04,4.63-6.83,6.43c-2.8,1.8-6.3,2.7-10.51,2.7 h-21.7v-41.46h9.3c2.76,0,5,0.48,6.72,1.44c1.72,0.96,3.1,2.24,4.13,3.85c1.03,1.61,1.84,3.45,2.41,5.51 c0.57,2.07,1.13,4.21,1.67,6.43h1.26v-35.72h-1.26c-0.84,3.45-1.7,6.26-2.58,8.44c-0.88,2.18-1.95,3.9-3.22,5.17 c-1.26,1.26-2.78,2.12-4.54,2.58c-1.76,0.46-3.9,0.69-6.43,0.69h-7.46v-35.49h19.06c3.14,0,5.82,0.38,8.04,1.15 c2.22,0.77,4.13,1.93,5.74,3.5c1.61,1.57,2.99,3.48,4.13,5.74c1.15,2.26,2.22,4.88,3.22,7.87h1.26v-19.87h-65.69v1.61h12.75v22.82 c-0.65,2.35-1.36,4.7-2.16,7.07c-1,2.95-2.45,5.59-4.36,7.92c-1.92,2.34-4.44,4.23-7.58,5.69c-3.14,1.45-7.27,2.18-12.4,2.18 c-3.98,0-7.62-0.61-10.91-1.84c-3.29-1.22-6.11-3.37-8.44-6.43c-2.34-3.06-4.15-7.23-5.45-12.52c-1.3-5.28-1.95-11.94-1.95-19.98 c0-2.83,0.09-5.84,0.29-9.01c0.19-3.18,0.59-6.32,1.2-9.42c0.61-3.1,1.51-6.05,2.7-8.84c1.19-2.79,2.77-5.24,4.77-7.35 c1.99-2.11,4.44-3.79,7.35-5.05c2.91-1.26,6.39-1.9,10.45-1.9c4.36,0,8.02,0.67,10.97,2.01c2.95,1.34,5.38,3.1,7.29,5.28 c1.91,2.18,3.4,4.69,4.48,7.52c1.07,2.83,1.95,5.7,2.64,8.61h1.26v-22.97h-1.72c-0.54,0.61-1.13,1.17-1.78,1.67 c-0.65,0.5-1.74,0.75-3.27,0.75c-1.15,0-2.33-0.23-3.56-0.69c-1.22-0.46-2.57-0.98-4.02-1.55c-1.46-0.57-3.1-1.09-4.94-1.55 c-1.84-0.46-3.95-0.69-6.32-0.69c-5.9,0-11.33,1.17-16.31,3.5c-4.98,2.34-9.3,5.5-12.98,9.47c-3.67,3.98-6.55,8.58-8.61,13.78 c-2.07,5.21-3.1,10.68-3.1,16.42c0,6.74,1.26,12.67,3.79,17.8c2.53,5.13,5.67,9.57,9.42,13.32c4.06,3.98,8.36,6.85,12.92,8.61 c4.55,1.76,9.24,2.64,14.07,2.64c1.15,0,2.25-0.05,3.31-0.13c1.34-0.1,2.62-0.27,3.82-0.5c0,0,0,0,0,0c2.14-0.42,4.08-0.9,5.8-1.44 c1.72-0.54,3.25-1.01,4.59-1.44c1.34-0.42,2.58-0.63,3.73-0.63c1.45,0,2.53,0.25,3.22,0.75c0.68,0.49,1.28,1.04,1.81,1.64v33.01 h-7.04l0.61,1.61c12.04,0,37.17,0,37.95,0c1.03,0,2.38,0.85,2.93,1.56c0.56,0.72,0.69,1.21,0.69,2.35c0,1.3-0.31,2.83-0.92,4.59 c-0.61,1.76-1.15,3.41-1.61,4.94c-0.38,1.3-0.67,2.49-0.86,3.56c-0.19,1.07-0.36,2.14-0.52,3.22c-0.15,1.07-0.25,2.22-0.29,3.45 c-0.04,1.22-0.06,2.64-0.06,4.25c0,4.52,0.75,8.57,2.24,12.17c1.49,3.6,3.48,6.66,5.97,9.19c2.48,2.51,5.33,4.44,8.56,5.78 c0.02,0.01,0.03,0.01,0.05,0.02c0.52,0.21,1.04,0.4,1.57,0.58c0.78,0.27,1.57,0.5,2.38,0.69c2.05,0.49,4.16,0.74,6.33,0.74 c1.88,0,3.59-0.18,5.15-0.52c1.68-0.37,3.18-0.94,4.5-1.72c2.53-1.49,4.56-3.29,6.09-5.4c1.53-2.11,2.68-4.27,3.45-6.49 c0.76-2.22,1.38-4.06,1.84-5.51l4.37-13.9c0.61-1.99,1.32-3.96,2.12-5.91c0.8-1.95,1.8-3.71,2.99-5.28 c1.19-1.57,2.64-2.85,4.36-3.85c1.72-1,3.81-1.49,6.26-1.49c3.06,0,5.59,0.63,7.58,1.89c1.99,1.26,3.6,2.85,4.82,4.77 c1.22,1.91,2.09,3.98,2.58,6.2c0.5,2.22,0.75,4.25,0.75,6.09c0,3.29-0.59,6.18-1.78,8.67c-1.19,2.49-2.76,4.61-4.71,6.37 c-1.95,1.76-4.21,3.2-6.78,4.31c-2.57,1.11-5.22,1.89-7.98,2.35v1.38h20.79v-1.61c-1.07-0.61-1.74-1.09-2.01-1.43 c-0.27-0.35-0.4-1.02-0.4-2.01c0-1.07,0.23-2.13,0.69-3.16C334.43,340.11,334.95,338.94,335.52,337.64z"/>
  </g>
  <g>
    <path fill="#010001"
          d="M101.82,470.72c0-1.19,0.21-2.38,0.63-3.57c0.42-1.18,1.03-2.24,1.83-3.18c0.8-0.93,1.79-1.69,2.95-2.28 c1.17-0.59,2.5-0.88,3.99-0.88c1.77,0,3.29,0.41,4.54,1.22c1.25,0.81,2.17,1.85,2.77,3.12l-1.18,0.67 c-0.34-0.69-0.74-1.27-1.22-1.74c-0.48-0.47-0.99-0.84-1.54-1.13c-0.55-0.29-1.12-0.5-1.72-0.63c-0.6-0.13-1.19-0.2-1.76-0.2 c-1.27,0-2.39,0.26-3.36,0.77c-0.97,0.51-1.79,1.18-2.46,2c-0.67,0.82-1.18,1.75-1.53,2.79s-0.52,2.08-0.52,3.12 c0,1.18,0.21,2.3,0.62,3.36c0.41,1.06,0.97,2,1.68,2.81c0.71,0.81,1.55,1.46,2.52,1.95s2.02,0.73,3.14,0.73 c0.6,0,1.21-0.07,1.83-0.22c0.62-0.15,1.23-0.38,1.82-0.7c0.59-0.32,1.13-0.72,1.64-1.22c0.5-0.49,0.92-1.08,1.26-1.75l1.2,0.59 c-0.34,0.75-0.79,1.41-1.36,1.99c-0.57,0.58-1.21,1.06-1.92,1.46c-0.71,0.39-1.46,0.69-2.25,0.88c-0.79,0.2-1.57,0.29-2.34,0.29 c-1.36,0-2.61-0.3-3.74-0.9c-1.13-0.6-2.1-1.38-2.93-2.34c-0.82-0.96-1.46-2.05-1.92-3.28 C102.05,473.23,101.82,471.99,101.82,470.72z"/>
    <path fill="#010001"
          d="M122.4,480.8l8.46-19.88h1.18l8.46,19.88h-1.54l-2.77-6.55h-9.49l-2.77,6.55H122.4z M131.44,462.65 l-4.42,10.42h8.76L131.44,462.65z"/>
    <path fill="#010001"
          d="M157.68,464.22c-1.29-1.44-3.11-2.16-5.46-2.16c-1.94,0-3.36,0.37-4.24,1.11s-1.33,1.73-1.33,2.98 c0,0.63,0.11,1.17,0.34,1.6c0.22,0.43,0.57,0.79,1.05,1.08c0.48,0.29,1.08,0.54,1.82,0.76s1.61,0.42,2.62,0.63 c1.08,0.22,2.05,0.47,2.91,0.74c0.86,0.27,1.59,0.61,2.2,1.02c0.61,0.41,1.07,0.92,1.4,1.51c0.33,0.6,0.49,1.33,0.49,2.21 c0,0.88-0.17,1.64-0.52,2.3c-0.34,0.65-0.83,1.2-1.46,1.64c-0.63,0.44-1.37,0.77-2.24,0.99s-1.83,0.34-2.9,0.34 c-3.1,0-5.72-0.99-7.87-2.97l0.76-1.15c0.84,0.88,1.87,1.57,3.08,2.09c1.21,0.51,2.58,0.77,4.09,0.77c1.74,0,3.09-0.32,4.07-0.95 c0.98-0.63,1.47-1.6,1.47-2.88c0-0.65-0.13-1.21-0.38-1.67s-0.64-0.85-1.16-1.19c-0.52-0.34-1.17-0.62-1.95-0.87 c-0.77-0.24-1.68-0.48-2.73-0.7c-1.06-0.22-2-0.46-2.81-0.71s-1.5-0.57-2.06-0.95c-0.56-0.38-0.98-0.84-1.26-1.39 c-0.28-0.54-0.42-1.22-0.42-2.04c0-0.9,0.17-1.69,0.52-2.38c0.34-0.69,0.83-1.27,1.44-1.75c0.62-0.48,1.35-0.83,2.21-1.08 c0.86-0.24,1.81-0.36,2.86-0.36c1.29,0,2.44,0.19,3.44,0.57c1.01,0.38,1.92,0.97,2.74,1.75L157.68,464.22z"/>
    <path fill="#010001"
          d="M163.28,480.8l8.46-19.88h1.18l8.46,19.88h-1.54l-2.77-6.55h-9.49l-2.77,6.55H163.28z M172.32,462.65 l-4.42,10.42h8.76L172.32,462.65z"/>
    <path fill="#010001" d="M212,479.51v1.29h-13.24v-19.88h12.99v1.29h-11.56v7.81h10.11v1.23h-10.11v8.26H212z"/>
    <path fill="#010001"
          d="M230.59,464.22c-1.29-1.44-3.11-2.16-5.46-2.16c-1.94,0-3.36,0.37-4.24,1.11s-1.33,1.73-1.33,2.98 c0,0.63,0.11,1.17,0.34,1.6c0.22,0.43,0.57,0.79,1.05,1.08c0.48,0.29,1.08,0.54,1.82,0.76s1.61,0.42,2.62,0.63 c1.08,0.22,2.05,0.47,2.91,0.74c0.86,0.27,1.59,0.61,2.2,1.02c0.61,0.41,1.07,0.92,1.4,1.51c0.33,0.6,0.49,1.33,0.49,2.21 c0,0.88-0.17,1.64-0.52,2.3c-0.34,0.65-0.83,1.2-1.46,1.64c-0.63,0.44-1.37,0.77-2.24,0.99s-1.83,0.34-2.9,0.34 c-3.1,0-5.72-0.99-7.87-2.97l0.76-1.15c0.84,0.88,1.87,1.57,3.08,2.09c1.21,0.51,2.58,0.77,4.09,0.77c1.74,0,3.09-0.32,4.07-0.95 c0.98-0.63,1.47-1.6,1.47-2.88c0-0.65-0.13-1.21-0.38-1.67s-0.64-0.85-1.16-1.19c-0.52-0.34-1.17-0.62-1.95-0.87 c-0.77-0.24-1.68-0.48-2.73-0.7c-1.06-0.22-2-0.46-2.81-0.71s-1.5-0.57-2.06-0.95c-0.56-0.38-0.98-0.84-1.26-1.39 c-0.28-0.54-0.42-1.22-0.42-2.04c0-0.9,0.17-1.69,0.52-2.38c0.34-0.69,0.83-1.27,1.44-1.75c0.62-0.48,1.35-0.83,2.21-1.08 c0.86-0.24,1.81-0.36,2.86-0.36c1.29,0,2.44,0.19,3.44,0.57c1.01,0.38,1.92,0.97,2.74,1.75L230.59,464.22z"/>
    <path fill="#010001"
          d="M259.48,464.22c-1.29-1.44-3.11-2.16-5.46-2.16c-1.94,0-3.36,0.37-4.24,1.11s-1.33,1.73-1.33,2.98 c0,0.63,0.11,1.17,0.34,1.6c0.22,0.43,0.57,0.79,1.05,1.08c0.48,0.29,1.08,0.54,1.82,0.76s1.61,0.42,2.62,0.63 c1.08,0.22,2.05,0.47,2.91,0.74c0.86,0.27,1.59,0.61,2.2,1.02c0.61,0.41,1.07,0.92,1.4,1.51c0.33,0.6,0.49,1.33,0.49,2.21 c0,0.88-0.17,1.64-0.52,2.3c-0.34,0.65-0.83,1.2-1.46,1.64c-0.63,0.44-1.37,0.77-2.24,0.99s-1.83,0.34-2.9,0.34 c-3.1,0-5.72-0.99-7.87-2.97l0.76-1.15c0.84,0.88,1.87,1.57,3.08,2.09c1.21,0.51,2.58,0.77,4.09,0.77c1.74,0,3.09-0.32,4.07-0.95 c0.98-0.63,1.47-1.6,1.47-2.88c0-0.65-0.13-1.21-0.38-1.67s-0.64-0.85-1.16-1.19c-0.52-0.34-1.17-0.62-1.95-0.87 c-0.77-0.24-1.68-0.48-2.73-0.7c-1.06-0.22-2-0.46-2.81-0.71s-1.5-0.57-2.06-0.95c-0.56-0.38-0.98-0.84-1.26-1.39 c-0.28-0.54-0.42-1.22-0.42-2.04c0-0.9,0.17-1.69,0.52-2.38c0.34-0.69,0.83-1.27,1.44-1.75c0.62-0.48,1.35-0.83,2.21-1.08 c0.86-0.24,1.81-0.36,2.86-0.36c1.29,0,2.44,0.19,3.44,0.57c1.01,0.38,1.92,0.97,2.74,1.75L259.48,464.22z"/>
    <path fill="#010001" d="M268.33,480.8v-19.85h1.43v19.85H268.33z"/>
    <path fill="#010001" d="M280.37,463.6v17.19h-1.43v-19.88h1.09l13.94,17.5v-17.47h1.43v19.85h-1.32L280.37,463.6z"/>
    <path fill="#010001"
          d="M304.59,480.8v-19.88h6.61c1.57,0,2.94,0.26,4.13,0.78c1.18,0.52,2.17,1.23,2.95,2.13 c0.78,0.9,1.37,1.95,1.76,3.15s0.59,2.49,0.59,3.85c0,1.51-0.22,2.88-0.66,4.1c-0.44,1.22-1.07,2.27-1.89,3.14 c-0.82,0.87-1.82,1.54-2.98,2.02c-1.17,0.48-2.47,0.71-3.91,0.71H304.59z M319.21,470.83c0-1.25-0.18-2.4-0.53-3.46 s-0.87-1.96-1.55-2.73c-0.68-0.76-1.52-1.36-2.51-1.79c-0.99-0.43-2.13-0.64-3.42-0.64h-5.18v17.3h5.18c1.31,0,2.46-0.22,3.46-0.66 c1-0.44,1.83-1.05,2.51-1.83s1.18-1.7,1.53-2.76S319.21,472.06,319.21,470.83z"/>
    <path fill="#010001" d="M327.49,480.8v-19.85h1.43v19.85H327.49z"/>
    <path fill="#010001"
          d="M335.11,470.72c0-1.19,0.21-2.38,0.63-3.57c0.42-1.18,1.03-2.24,1.83-3.18c0.8-0.93,1.79-1.69,2.95-2.28 c1.17-0.59,2.5-0.88,3.99-0.88c1.77,0,3.29,0.41,4.54,1.22c1.25,0.81,2.17,1.85,2.77,3.12l-1.18,0.67 c-0.34-0.69-0.74-1.27-1.22-1.74c-0.48-0.47-0.99-0.84-1.54-1.13c-0.55-0.29-1.12-0.5-1.72-0.63c-0.6-0.13-1.19-0.2-1.76-0.2 c-1.27,0-2.39,0.26-3.36,0.77c-0.97,0.51-1.79,1.18-2.46,2c-0.67,0.82-1.18,1.75-1.53,2.79s-0.52,2.08-0.52,3.12 c0,1.18,0.21,2.3,0.62,3.36c0.41,1.06,0.97,2,1.68,2.81c0.71,0.81,1.55,1.46,2.52,1.95s2.02,0.73,3.14,0.73 c0.6,0,1.21-0.07,1.83-0.22c0.62-0.15,1.23-0.38,1.82-0.7c0.59-0.32,1.13-0.72,1.64-1.22c0.5-0.49,0.92-1.08,1.26-1.75l1.2,0.59 c-0.34,0.75-0.79,1.41-1.36,1.99c-0.57,0.58-1.21,1.06-1.92,1.46c-0.71,0.39-1.46,0.69-2.25,0.88c-0.79,0.2-1.57,0.29-2.34,0.29 c-1.36,0-2.61-0.3-3.74-0.9c-1.13-0.6-2.1-1.38-2.93-2.34c-0.82-0.96-1.46-2.05-1.92-3.28 C335.34,473.23,335.11,471.99,335.11,470.72z"/>
    <path fill="#010001"
          d="M355.97,480.8l8.46-19.88h1.18l8.46,19.88h-1.54l-2.77-6.55h-9.49l-2.77,6.55H355.97z M365.01,462.65 l-4.42,10.42h8.76L365.01,462.65z"/>
    <path fill="#010001" d="M392.23,462.2h-7.28v18.59h-1.43V462.2h-7.28v-1.29h15.99V462.2z"/>
    <path fill="#A88A7A"
          d="M133.08,502.36l3.64-9.23h1.46l3.63,9.23h-1.9l-0.84-2.3h-3.24l-0.84,2.3H133.08z M137.45,495.07l-1.33,3.73 h2.61L137.45,495.07z"/>
    <path fill="#A88A7A"
          d="M151.89,502.36v-9.23h4.08c0.42,0,0.82,0.09,1.18,0.27c0.36,0.18,0.67,0.41,0.93,0.7 c0.26,0.29,0.46,0.62,0.61,0.99s0.22,0.74,0.22,1.11c0,0.6-0.15,1.14-0.45,1.63c-0.3,0.49-0.7,0.84-1.21,1.06l2.17,3.47h-2.03 l-1.94-3.09h-1.77v3.09H151.89z M153.69,497.7h2.25c0.17,0,0.32-0.04,0.46-0.12c0.14-0.08,0.27-0.18,0.37-0.32 c0.1-0.13,0.19-0.29,0.25-0.47c0.06-0.18,0.09-0.38,0.09-0.58c0-0.22-0.03-0.42-0.1-0.6c-0.07-0.18-0.16-0.34-0.28-0.47 c-0.12-0.13-0.25-0.24-0.4-0.31c-0.15-0.07-0.31-0.11-0.46-0.11h-2.17V497.7z"/>
    <path fill="#A88A7A" d="M176.44,494.71h-2.94v7.66h-1.79v-7.66h-2.95v-1.57h7.68V494.71z"/>
    <path fill="#A88A7A"
          d="M184.9,502.36l3.64-9.23h1.46l3.63,9.23h-1.9l-0.84-2.3h-3.24l-0.84,2.3H184.9z M189.27,495.07l-1.33,3.73 h2.61L189.27,495.07z"/>
    <path fill="#A88A7A" d="M208.84,504.05v-11.77h1.48v11.77H208.84z"/>
    <path fill="#A88A7A"
          d="M234.02,502.36v-6.11l-2.38,4.55h-0.98l-2.38-4.55v6.11h-1.79v-9.23h1.92l2.73,5.25l2.76-5.25h1.91v9.23 H234.02z"/>
    <path fill="#A88A7A"
          d="M245.91,502.36l3.64-9.23H251l3.63,9.23h-1.9l-0.84-2.3h-3.24l-0.84,2.3H245.91z M250.27,495.07l-1.33,3.73 h2.61L250.27,495.07z"/>
    <path fill="#A88A7A" d="M264.72,502.36v-9.23h1.79v7.66h4.71v1.57H264.72z"/>
    <path fill="#A88A7A" d="M281.47,502.36v-9.23h1.79v7.66h4.71v1.57H281.47z"/>
    <path fill="#A88A7A"
          d="M301.7,502.43c-0.65,0-1.24-0.13-1.78-0.4c-0.54-0.26-1-0.62-1.38-1.05c-0.39-0.44-0.68-0.94-0.89-1.5 s-0.31-1.14-0.31-1.73c0-0.62,0.11-1.2,0.33-1.77c0.22-0.56,0.53-1.06,0.92-1.5s0.86-0.78,1.4-1.03c0.54-0.26,1.12-0.38,1.75-0.38 c0.65,0,1.24,0.14,1.78,0.41c0.54,0.27,1,0.63,1.38,1.07c0.38,0.44,0.68,0.95,0.88,1.51s0.31,1.13,0.31,1.72 c0,0.62-0.11,1.2-0.33,1.76c-0.22,0.56-0.53,1.05-0.92,1.48c-0.39,0.43-0.85,0.77-1.39,1.03S302.33,502.43,301.7,502.43z M299.14,497.75c0,0.4,0.06,0.79,0.17,1.16c0.12,0.37,0.29,0.7,0.51,0.99c0.22,0.29,0.49,0.52,0.81,0.69 c0.32,0.17,0.68,0.26,1.09,0.26c0.42,0,0.78-0.09,1.1-0.27c0.32-0.18,0.58-0.41,0.8-0.71s0.38-0.63,0.49-0.99s0.17-0.74,0.17-1.12 c0-0.4-0.06-0.78-0.18-1.16c-0.12-0.37-0.29-0.7-0.51-0.99s-0.49-0.51-0.81-0.68c-0.32-0.17-0.67-0.25-1.07-0.25 c-0.42,0-0.78,0.09-1.1,0.27c-0.32,0.18-0.58,0.41-0.81,0.7c-0.22,0.29-0.39,0.62-0.5,0.99 C299.2,496.99,299.14,497.37,299.14,497.75z"/>
    <path fill="#A88A7A"
          d="M316.59,502.36v-9.23h4.08c0.42,0,0.82,0.09,1.18,0.27c0.36,0.18,0.67,0.41,0.93,0.7 c0.26,0.29,0.46,0.62,0.61,0.99s0.22,0.74,0.22,1.11c0,0.6-0.15,1.14-0.45,1.63c-0.3,0.49-0.7,0.84-1.21,1.06l2.17,3.47h-2.03 l-1.94-3.09h-1.77v3.09H316.59z M318.38,497.7h2.25c0.17,0,0.32-0.04,0.46-0.12c0.14-0.08,0.27-0.18,0.37-0.32 c0.1-0.13,0.19-0.29,0.25-0.47c0.06-0.18,0.09-0.38,0.09-0.58c0-0.22-0.03-0.42-0.1-0.6c-0.07-0.18-0.16-0.34-0.28-0.47 c-0.12-0.13-0.25-0.24-0.4-0.31c-0.15-0.07-0.31-0.11-0.46-0.11h-2.17V497.7z"/>
    <path fill="#A88A7A"
          d="M333.9,497.68c0-0.56,0.1-1.12,0.3-1.67c0.2-0.55,0.49-1.04,0.86-1.48c0.38-0.43,0.84-0.78,1.38-1.05 s1.17-0.4,1.87-0.4c0.82,0,1.54,0.19,2.14,0.56c0.6,0.37,1.05,0.86,1.33,1.46l-1.38,0.95c-0.1-0.26-0.24-0.48-0.4-0.66 c-0.17-0.18-0.34-0.32-0.54-0.42c-0.2-0.1-0.4-0.18-0.6-0.23c-0.21-0.05-0.41-0.07-0.6-0.07c-0.42,0-0.8,0.09-1.12,0.27 c-0.32,0.18-0.59,0.42-0.8,0.71c-0.21,0.29-0.37,0.62-0.48,0.99s-0.16,0.73-0.16,1.1c0,0.41,0.06,0.8,0.19,1.18 c0.13,0.38,0.3,0.71,0.53,0.99s0.5,0.52,0.83,0.69c0.32,0.17,0.67,0.26,1.05,0.26c0.2,0,0.4-0.03,0.61-0.08s0.41-0.13,0.6-0.25 c0.2-0.11,0.38-0.26,0.54-0.44c0.16-0.18,0.3-0.39,0.4-0.64l1.47,0.84c-0.14,0.35-0.34,0.65-0.6,0.92 c-0.26,0.26-0.57,0.49-0.9,0.67c-0.34,0.18-0.69,0.32-1.07,0.42c-0.37,0.1-0.74,0.14-1.11,0.14c-0.64,0-1.23-0.14-1.76-0.42 c-0.53-0.28-0.99-0.64-1.38-1.09c-0.39-0.45-0.69-0.95-0.9-1.52S333.9,498.27,333.9,497.68z"/>
    <path fill="#A88A7A"
          d="M351.19,502.36l3.64-9.23h1.46l3.63,9.23h-1.9l-0.84-2.3h-3.24l-0.84,2.3H351.19z M355.56,495.07l-1.33,3.73 h2.61L355.56,495.07z"/>
  </g>
</svg>
