<?xml version="1.0" standalone="no"?>
<!DOCTYPE svg PUBLIC "-//W3C//DTD SVG 20010904//EN"
 "http://www.w3.org/TR/2001/REC-SVG-20010904/DTD/svg10.dtd">
<svg version="1.0" xmlns="http://www.w3.org/2000/svg"
 width="1124.000000pt" height="1124.000000pt" viewBox="0 0 1124.000000 1124.000000"
 preserveAspectRatio="xMidYMid meet">
<metadata>
Created by potrace 1.14, written by Peter Selinger 2001-2017
</metadata>
<g transform="translate(0.000000,1124.000000) scale(0.100000,-0.100000)"
fill="#000000" stroke="none">
<path d="M3165 11228 c-102 -11 -307 -60 -393 -94 -713 -283 -1179 -953 -1209
-1739 -19 -480 118 -888 428 -1275 327 -409 731 -629 1228 -670 127 -10 387 1
445 20 17 5 69 19 116 31 47 11 159 43 250 71 144 44 177 51 255 52 98 1 112
-4 183 -62 l42 -34 0 -734 0 -734 -159 0 -160 0 12 -35 12 -35 867 -2 866 -3
44 -30 c99 -70 100 -144 8 -429 -89 -279 -120 -465 -120 -731 1 -429 119 -745
374 -1001 236 -237 535 -354 871 -341 209 8 326 49 483 167 135 101 246 255
316 436 19 49 98 292 176 539 150 477 186 579 243 690 94 184 221 307 372 361
34 12 90 19 171 22 216 7 337 -39 479 -182 168 -170 243 -398 232 -700 -5
-156 -25 -243 -79 -349 -120 -238 -315 -400 -604 -500 -86 -30 -134 -43 -231
-63 -18 -3 -23 -11 -23 -34 l0 -30 460 0 460 0 0 38 c0 33 -5 40 -40 62 -51
32 -64 64 -58 149 4 56 15 90 60 187 98 211 138 377 138 579 0 279 -88 546
-245 741 -174 218 -418 346 -717 376 -402 41 -676 -115 -872 -497 -66 -128
-94 -207 -227 -640 -133 -433 -192 -573 -291 -695 -91 -110 -235 -210 -346
-240 -179 -47 -424 -20 -596 66 -190 95 -341 285 -396 497 -47 187 -46 545 4
738 29 115 88 243 150 326 159 211 449 378 809 464 l97 23 0 558 0 558 -25 0
c-17 0 -26 -6 -29 -22 -58 -276 -113 -419 -224 -587 -105 -159 -288 -313 -442
-374 -139 -54 -173 -57 -765 -57 l-545 0 2 918 3 917 195 3 c322 5 443 -17
561 -99 75 -53 130 -121 180 -224 33 -69 53 -132 123 -395 10 -38 16 -45 39
-48 l27 -3 0 796 0 796 -27 -3 c-24 -3 -28 -10 -45 -73 -29 -106 -88 -284
-113 -342 -53 -119 -141 -220 -233 -267 -102 -52 -148 -58 -439 -63 l-273 -5
0 786 0 786 484 0 c513 0 581 -5 719 -51 138 -46 275 -154 367 -289 53 -79
138 -255 180 -377 31 -88 34 -93 61 -93 l29 0 0 440 0 440 -1457 -2 -1458 -3
0 -30 0 -30 283 -3 282 -2 0 -508 0 -508 -51 -165 c-63 -205 -103 -298 -174
-405 -100 -150 -233 -263 -397 -338 -151 -69 -301 -96 -538 -96 -309 0 -531
60 -701 188 -248 188 -400 523 -470 1035 -26 195 -37 723 -20 968 53 743 263
1162 684 1359 172 81 390 113 621 92 162 -15 263 -40 381 -96 202 -96 358
-254 460 -467 31 -66 120 -327 145 -426 10 -39 14 -43 40 -43 l30 0 -2 508 -3
507 -33 3 c-26 3 -42 -5 -84 -42 -102 -90 -193 -88 -451 8 -188 70 -291 100
-402 116 -83 11 -268 11 -380 -2z"/>
</g>
</svg>
