<?xml version="1.0" standalone="no"?>
<!DOCTYPE svg PUBLIC "-//W3C//DTD SVG 20010904//EN"
 "http://www.w3.org/TR/2001/REC-SVG-20010904/DTD/svg10.dtd">
<svg version="1.0" xmlns="http://www.w3.org/2000/svg"
 width="1012.000000pt" height="1012.000000pt" viewBox="0 0 1012.000000 1012.000000"
 preserveAspectRatio="xMidYMid meet">
<metadata>
Created by potrace 1.14, written by Peter Selinger 2001-2017
</metadata>
<g transform="translate(0.000000,1012.000000) scale(0.100000,-0.100000)"
fill="#000000" stroke="none">
<path d="M2750 10099 c-410 -77 -795 -337 -1043 -707 -119 -177 -220 -417
-268 -637 -17 -79 -22 -145 -26 -320 -6 -251 10 -379 67 -561 73 -228 235
-494 420 -688 308 -323 680 -486 1107 -486 125 0 135 -1 128 -17 -4 -10 -135
-358 -291 -773 -157 -415 -321 -849 -365 -965 -43 -115 -184 -489 -313 -830
l-233 -620 -202 -3 -201 -2 0 -35 0 -35 495 0 495 0 0 35 0 35 -254 2 -253 3
213 565 c118 311 226 595 240 633 l26 67 531 -2 530 -3 114 -300 c62 -165 167
-442 232 -615 66 -173 123 -323 126 -333 7 -16 -22 -17 -529 -17 l-536 0 0
-35 0 -35 255 0 255 0 0 -1565 0 -1565 -255 0 -255 0 0 -35 0 -35 545 0 545 0
0 35 0 35 -255 0 -255 0 0 1552 c0 853 2 1549 4 1547 2 -2 36 -87 74 -189 238
-633 1214 -3186 1220 -3192 4 -4 92 219 196 495 105 276 236 624 292 772 56
149 160 425 232 615 72 190 176 467 232 615 56 149 129 342 162 430 33 88 66
174 73 192 l13 31 44 -12 43 -13 3 -1422 2 -1421 -255 0 -255 0 0 -35 0 -35
740 0 740 0 0 35 0 35 -252 2 -253 3 0 1414 0 1413 68 23 c103 35 172 81 272
180 106 106 169 206 221 351 20 54 94 281 164 504 132 416 168 514 222 610 77
137 183 237 296 281 72 27 234 37 324 19 183 -35 349 -186 424 -387 44 -117
57 -198 58 -353 0 -122 -3 -158 -23 -225 -37 -133 -94 -227 -196 -331 -141
-142 -297 -226 -522 -282 l-104 -26 3 -30 3 -31 418 -3 417 -2 0 39 c0 34 -5
41 -40 65 -73 48 -69 131 13 321 94 219 102 256 102 495 0 183 -3 215 -24 295
-48 185 -142 347 -275 472 -179 169 -396 253 -653 253 -289 0 -468 -95 -630
-335 -89 -131 -144 -268 -248 -610 -144 -476 -181 -570 -276 -695 -94 -124
-232 -215 -366 -241 -79 -15 -256 -7 -343 16 -144 38 -280 124 -365 233 -127
161 -174 352 -161 659 9 220 40 343 123 491 121 218 418 402 786 488 l77 18 0
508 0 508 -29 0 c-27 0 -30 -4 -36 -42 -14 -85 -76 -283 -114 -364 -101 -216
-289 -406 -472 -478 -133 -53 -171 -56 -695 -56 l-484 0 0 820 0 820 230 0
c244 0 303 -7 388 -47 139 -65 226 -202 296 -466 43 -160 57 -187 90 -174 15
6 16 69 16 722 l0 716 -31 -3 c-31 -3 -32 -4 -69 -133 -66 -227 -106 -311
-186 -395 -106 -112 -214 -140 -530 -140 l-204 0 0 705 0 705 358 0 c535 -1
649 -13 797 -86 173 -84 310 -273 411 -562 29 -82 44 -99 78 -86 14 6 16 44
16 405 l0 399 -1320 0 -1320 0 0 -35 0 -35 255 0 255 0 0 -456 0 -456 -46
-151 c-108 -357 -236 -529 -488 -652 -116 -57 -217 -83 -383 -97 -308 -25
-583 38 -762 176 -232 178 -376 537 -422 1047 -15 169 -16 609 0 796 53 659
271 1046 670 1190 146 54 347 74 526 55 132 -15 202 -34 304 -83 241 -114 380
-283 481 -582 20 -62 46 -145 56 -185 15 -59 23 -74 41 -78 12 -3 27 -3 32 1
8 4 11 154 11 466 l0 459 -43 0 c-35 0 -49 -6 -73 -31 -41 -44 -82 -59 -164
-59 -60 0 -90 7 -193 46 -290 110 -357 124 -580 123 -124 -1 -201 -6 -277 -20z
m1206 -3249 c15 -6 44 -24 65 -41 l39 -31 0 -659 0 -659 -137 0 -138 0 -29 78
c-16 42 -123 324 -237 626 -115 302 -209 552 -209 555 0 4 29 12 64 19 36 6
136 34 223 61 87 27 167 51 178 54 38 9 154 7 181 -3z m-761 -1156 c64 -170
164 -432 221 -583 57 -150 104 -275 104 -277 0 -2 -223 -4 -495 -4 -359 0
-495 3 -495 11 0 6 54 154 119 328 66 174 174 460 240 636 67 176 124 327 127
335 4 9 17 -15 34 -61 16 -42 81 -215 145 -385z m2200 -334 c87 -54 89 -150
10 -380 -82 -240 -105 -385 -105 -663 0 -221 11 -304 57 -451 65 -208 210
-416 377 -545 47 -37 192 -125 220 -134 6 -2 4 -20 -7 -48 -9 -24 -212 -561
-452 -1194 -239 -632 -438 -1156 -440 -1164 -3 -8 -7 -12 -10 -9 -4 4 -118
303 -647 1698 -99 261 -220 580 -269 708 -49 129 -89 236 -89 238 0 2 203 4
450 4 l450 0 0 35 0 35 -203 0 -203 0 -21 58 c-12 31 -94 248 -183 482 -308
808 -510 1342 -510 1346 0 2 347 4 771 4 756 0 772 0 804 -20z"/>
</g>
</svg>
